<?xml version="1.0" encoding="UTF-8" standalone="no"?>
<!-- Created with Inkscape (http://www.inkscape.org/) -->

<svg
   width="127.82996mm"
   height="118.3816mm"
   viewBox="0 0 127.82996 118.3816"
   version="1.1"
   id="svg3230"
   xml:space="preserve"
   inkscape:version="1.2.2 (b0a8486541, 2022-12-01)"
   sodipodi:docname="drawing.svg"
   xmlns:inkscape="http://www.inkscape.org/namespaces/inkscape"
   xmlns:sodipodi="http://sodipodi.sourceforge.net/DTD/sodipodi-0.dtd"
   xmlns="http://www.w3.org/2000/svg"
   xmlns:svg="http://www.w3.org/2000/svg"><sodipodi:namedview
     id="namedview3232"
     pagecolor="#ffffff"
     bordercolor="#000000"
     borderopacity="0.25"
     inkscape:showpageshadow="2"
     inkscape:pageopacity="0.0"
     inkscape:pagecheckerboard="0"
     inkscape:deskcolor="#d1d1d1"
     inkscape:document-units="mm"
     showgrid="false"
     inkscape:zoom="0.029286792"
     inkscape:cx="-7085.1052"
     inkscape:cy="6453.4211"
     inkscape:window-width="1366"
     inkscape:window-height="700"
     inkscape:window-x="0"
     inkscape:window-y="0"
     inkscape:window-maximized="1"
     inkscape:current-layer="svg3230" /><defs
     id="defs3227" /><path
     d="m 62.044705,118.2481 c -2.0052,-0.4004 -4.3567,-1.7295 -5.7117,-3.2286 -1.8433,-2.0391 -2.5709,-3.8079 -2.7056,-6.5772 -0.1854,-3.8105 1.0513,-6.4161 4.1927,-8.833298 1.4909,-1.1473 1.5394,-1.2232 1.392,-2.1785 -0.084,-0.5444 -0.1656,-1.0084 -0.1814,-1.031 -0.016,-0.023 -0.8676,0.4703 -1.893,1.0954 -2.4903,1.5181 -5.1957,2.643598 -8.43,3.506898 -2.3855,0.6368 -3.1217,0.7116 -6.9036,0.7012 -3.8166,-0.01 -4.4622,-0.082 -6.5586,-0.7206 -6.1644,-1.879298 -10.4956,-5.280598 -13.932,-10.941099 -2.3447,-3.8623 -3.5397,-9.6008 -3.5433,-17.0163 0,-5.482699 0.5336,-9.898199 2.0623,-16.978299 0.4817,-2.2308 0.8478,-4.0879 0.8137,-4.1268 -0.034,-0.039 -0.8188,0.854 -1.7436,1.9843 -5.2408,6.4057 -10.0712004,10.24 -13.3230004,10.5756 -1.2267,0.1266 -1.6808,0.041 -2.8576,-0.5398 -0.8586,-0.4236 -1.6547,-1.0689 -2.06059997,-1.6702 -0.5779,-0.8562 -0.661500004497,-1.2664 -0.661500004497,-3.2483 0,-1.9522 0.102900004497,-2.4744 0.737800004497,-3.747 1.33669997,-2.6791 3.82429997,-5.1993 7.72889997,-7.8303 3.9135004,-2.6369 7.6786004,-4.014 11.5926004,-4.2397 l 2.5968,-0.1498 1.9147,-2.4112 c 1.0531,-1.3261 2.4373,-3.1256 3.0761,-3.9987 0.6387,-0.8731 2.0967,-2.7781 3.2399,-4.2333 1.1432,-1.4552 2.4599,-3.1564 2.9261,-3.7805 0.4661,-0.624 1.6215,-2.0986 2.5674,-3.2769 0.9458,-1.1783 2.0769,-2.5874 2.5135,-3.1313 0.4366,-0.5439 1.6867,-2.0314 2.7781,-3.3056 1.0914,-1.2742 2.7583,-3.2343 3.7042,-4.3558 3.2408,-3.8426 9.9745,-10.4421001 12.2422,-11.9983001 2.3212,-1.59299998 4.6293,-2.5630999811879 6.0983,-2.5630999811879 1.1757,0 3.7168,0.8836000011879 5.227,1.8175999811879 4.6935,2.9028 14.6309,13.3317001 22.3449,23.4501001 0.9984,1.3097 1.8907,2.4408 1.9828,2.5136 0.2301,0.1817 4.943,6.1766 6.1361,7.8052 0.5331,0.7276 1.939895,2.6326 3.126295,4.2333 l 2.1571,2.9104 2.6879,0.3065 c 9.0265,1.0293 18.0207,7.1616 20.0775,13.6889 1.7284,5.4851 -2.8186,9.5155 -7.8645,6.9711 -2.8298,-1.4269 -6.9913,-5.194 -10.3744,-9.3909 -1.8824,-2.3353 -2.6615,-2.9929 -2.351,-1.9844 0.7867,2.5551 1.9572,8.9944 2.4168,13.2953 0.1011,0.9459 0.2289,1.9579 0.2841,2.249 0.055,0.291 0.1531,2.3151 0.2177,4.497899 0.3171,10.72 -2.4788,18.740801 -8.3949,24.083001 -2.022395,1.8262 -5.938795,3.858898 -8.951595,4.645898 -3.1016,0.8102 -8.3529,0.9936 -11.3651,0.3968 -3.7591,-0.7447 -7.2601,-2.076198 -10.5886,-4.026998 -0.8346,-0.4892 -1.5867,-0.8894 -1.6714,-0.8894 -0.085,0 -0.1539,0.4666 -0.1539,1.0368 0,0.8924 0.1245,1.1137 0.894,1.5892 1.3721,0.848098 3.047,2.808198 3.8206,4.471498 0.8934,1.9205 1.1009,5.1047 0.4733,7.2633 -0.9129,3.1406 -3.5013,5.8733 -6.5108,6.8742 -1.625,0.5404 -3.859,0.7262 -5.2917,0.4402 z m 4.967,-4.4466 c 2.4249,-1.2371 3.9036,-4.4954 3.2753,-7.2173 -1.1968,-5.1847 -7.059,-6.887498 -10.8972,-3.1653 -1.2515,1.2136 -2.1076,3.1235 -2.1076,4.7022 0,1.789 1.3567,4.155 3.0397,5.3009 1.8422,1.2544 4.6615,1.4143 6.6898,0.3795 z m -21.5034,-15.915398 c 3.9239,-0.5591 8.9066,-2.7884 12.4567,-5.5734 3.2995,-2.588301 3.2398,-2.380301 1.3974,-4.874401 -1.8707,-2.5323 -4.9438,-8.5986 -6.0384,-11.9194 -1.7294,-5.2473 -2.2341,-11.791499 -1.2109,-15.701899 1.694,-6.4742 6.5059,-10.3595 12.3998,-10.012 3.2613,0.1922 4.9343,0.9388 7.2135,3.2189 3.2671,3.2683 4.2231,6.0556 4.1831,12.1959 -0.036,5.552199 -1.1381,10.232999 -3.6227,15.389399 -1.4393,2.987 -3.8352,6.8285 -5.2698,8.4494 -0.4871,0.5503 -0.4765,0.5686 1.1707,2.009101 7.8226,6.8411 18.7722,8.9237 26.6654,5.0717 2.1236,-1.0364 2.8624,-1.5813 4.7625,-3.5132 4.345295,-4.417901 5.863995,-8.389201 6.230995,-16.293901 0.316,-6.804699 -0.33,-12.623799 -2.6436,-23.812499 -0.5115,-2.4738 -0.9326,-5.0564 -0.9358,-5.7391 0,-0.6826 -0.1157,-1.309 -0.2499,-1.392 -0.2467,-0.1525 -6.623295,-8.4703 -8.090295,-10.5532 -2.5254,-3.5857 -8.2892,-10.6607 -14.7116,-18.0584 -3.1795,-3.6623 -9.0521,-9.4621001 -10.9883,-10.8521001 -2.2465,-1.6127 -3.9026,-2.3103 -4.997,-2.105 -2.3596,0.4427 -7.4052,4.7414 -12.9071,10.9967001 -1.472,1.6735 -3.2765,3.6987 -4.0101,4.5004 -1.2263,1.3403 -2.2847,2.6259 -7.0772,8.5965 -2.1521,2.6812 -7.7401,9.9828 -8.0474,10.5153 -0.1277,0.2212 -0.607,0.8627 -1.0653,1.4257 -4.0092,4.9253 -4.5827,5.7805 -4.5902,6.8444 0,0.5821 -0.2446,2.1894 -0.5344,3.5718 -2.6375,12.5814 -3.2314,16.7372 -3.2523,22.754199 -0.036,10.3192 2.1913,16.3435 7.6226,20.620401 4.7635,3.7511 9.9715,5.1195 16.1396,4.2407 z m 20.1517,-13.550101 c 2.2702,-3.4987 3.3168,-5.5269 4.4049,-8.5361 1.2511,-3.4602 1.6925,-5.281 2.0437,-8.430299 0.5718,-5.1281 -0.446,-8.9975 -3.0759,-11.6933 -1.0415,-1.0676 -1.618,-1.4212 -2.9043,-1.7812 -1.992,-0.5576 -2.8081,-0.5625 -4.631,-0.027 -1.1015,0.3233 -1.7573,0.7502 -2.8087,1.8285 -1.6173,1.6587 -2.3243,2.9485 -2.8589,5.2158 -1.1067,4.6942 0.2694,12.176799 3.4199,18.595299 1.5973,3.2543 4.1451,7.2761 4.6093,7.2761 0.1171,0 0.9276,-1.1013 1.801,-2.4474 z M 6.8261046,60.156502 c 1.9783,-1.012 4.8306004,-3.7229 8.5914004,-8.1658 1.1087,-1.3097 2.4688,-2.8847 3.0225,-3.4999 1.285,-1.4275 1.2879,-1.7345 0.015,-1.5034 -4.7363,0.8596 -12.4137004,6.1055 -14.2096004,9.7093 -0.7968,1.599 -0.8907,3.2107 -0.2102,3.6071 0.6893,0.4015 1.8368,0.3409 2.7913,-0.1473 z m 117.0140954,0.1439 c 0.4002,-0.6476 0.1194,-2.4134 -0.594,-3.7347 -2.1339,-3.9525 -8.5642,-8.292 -14.2052,-9.5866 -1.0652,-0.2445 -0.8885,0.085 1.8398,3.4265 3.6773,4.504 7.9529,8.7176 9.6456,9.5055 1.5149,0.7052 3.01,0.8808 3.3138,0.3893 z"
     style="fill:#8b6f5e;fill-opacity:1;stroke-width:0.264583"
     id="path636"
     inkscape:export-filename="icons/ic_urwah_bnav_home_bead.svg"
     inkscape:export-xdpi="96"
     inkscape:export-ydpi="96" /></svg>
