<?xml version="1.0" encoding="UTF-8" standalone="no"?>
<!-- Created with Inkscape (http://www.inkscape.org/) -->

<svg
   width="78.377419mm"
   height="74.31694mm"
   viewBox="0 0 78.377419 74.31694"
   version="1.1"
   id="svg5"
   xml:space="preserve"
   xmlns="http://www.w3.org/2000/svg"
   xmlns:svg="http://www.w3.org/2000/svg"><defs
     id="defs2" /><g
     id="layer1"
     transform="translate(-43.053571,-92.373761)"><path
       style="fill:#896c5c;fill-opacity:1;stroke-width:0.0626676"
       d="m 76.036768,166.63426 c -0.768624,-0.0555 -1.913686,-0.22591 -1.9821,-0.2949 -0.03642,-0.0367 0.113359,-2.14387 0.155083,-2.18166 0.0072,-0.007 0.281052,0.041 0.60849,0.10562 0.840053,0.16585 2.161386,0.25484 2.713826,0.18278 0.791091,-0.1032 1.110288,-0.24816 1.502612,-0.68241 0.233487,-0.25845 0.483631,-0.84085 0.483631,-1.12603 v -0.17447 l -1.036447,0.0284 c -1.208694,0.0331 -1.748588,-0.0362 -2.572335,-0.33022 -1.024884,-0.36577 -1.590898,-0.85408 -2.036809,-1.75719 -0.357237,-0.72351 -0.451382,-1.2504 -0.414321,-2.3187 0.03514,-1.01303 0.125116,-1.40787 0.492693,-2.16203 0.204691,-0.41998 0.366988,-0.64004 0.767057,-1.04011 0.776602,-0.7766 1.585296,-1.13292 2.920134,-1.28663 1.138614,-0.13111 2.927009,0.0611 4.038532,0.43399 l 0.504868,0.16939 v 4.38673 c 0,4.36808 -6.26e-4,4.38881 -0.141522,4.87501 -0.544418,1.8783 -1.851739,2.90991 -4.02423,3.17552 -0.587289,0.0718 -0.951206,0.0712 -1.979162,-0.003 z m 3.481542,-8.44722 v -2.12309 l -0.172336,-0.0701 c -0.515466,-0.2096 -1.29636,-0.24718 -1.860249,-0.0895 -0.474269,0.13261 -0.94452,0.5732 -1.123956,1.05307 -0.177851,0.47563 -0.213264,1.54383 -0.06664,2.00998 0.155146,0.49325 0.43168,0.8352 0.847347,1.04778 0.42822,0.219 0.772121,0.27819 1.670825,0.28759 l 0.70501,0.007 z m 3.421882,8.46899 -0.244172,-0.0251 0.04018,-0.60667 c 0.0221,-0.33368 0.04033,-0.84233 0.0405,-1.13035 l 6.26e-4,-0.52365 0.558043,0.0442 c 1.027441,0.0813 1.5358,-0.20716 1.796617,-1.0195 0.106597,-0.332 0.116774,-0.70064 0.136621,-4.94912 l 0.02145,-4.5904 h 1.343769 1.343769 l 0.0162,3.21171 0.0162,3.21172 3.30571,0.0162 c 1.81815,0.009 3.30572,0 3.30572,-0.0198 0,-0.0198 -0.0672,-0.12584 -0.14927,-0.23556 -0.385,-0.51452 -0.60164,-1.32685 -0.6023,-2.25848 -0.002,-2.72155 2.34099,-4.53078 5.41502,-4.1815 0.52872,0.0601 1.649575,0.29015 1.719195,0.35289 0.02,0.018 -0.24041,1.44968 -0.35845,1.97088 -0.0328,0.14498 -0.0798,0.21101 -0.13856,0.19479 -0.791945,-0.21867 -1.104025,-0.26912 -1.718245,-0.27773 -0.62066,-0.009 -0.72372,0.006 -1.03439,0.15151 -0.43737,0.20429 -0.72889,0.49559 -0.93443,0.93373 -0.14057,0.29965 -0.16106,0.42339 -0.1557,0.94039 0.008,0.77135 0.16005,1.18382 0.61924,1.6798 0.37218,0.402 0.73198,0.6084 1.22288,0.7015 0.18197,0.0345 0.97561,0.0627 1.763655,0.0627 h 1.4328 v 1.09668 1.09668 h -6.862105 -6.8621 v 0.30531 c 0,0.42648 -0.2596,1.40395 -0.510188,1.92106 -0.312386,0.64462 -0.884823,1.22327 -1.519721,1.53618 -0.279472,0.13774 -0.705536,0.29174 -0.946806,0.34222 -0.407778,0.0853 -1.459767,0.10969 -2.061532,0.0478 z m -16.300071,-4.16139 c -0.60765,-0.0557 -1.16526,-0.21062 -1.754692,-0.48754 -1.183321,-0.55595 -1.862838,-1.60357 -2.036929,-3.14034 -0.167986,-1.48293 0.324518,-3.06418 1.241339,-3.98546 0.747367,-0.75101 1.579981,-1.13097 2.796422,-1.2761 1.496909,-0.17861 2.844011,0.18881 3.674426,1.00219 0.585553,0.57354 0.915298,1.22886 1.098544,2.18321 0.121186,0.63115 0.130023,5.70669 0.01,5.72456 -0.216842,0.0323 -4.650524,0.0142 -5.029074,-0.0205 z m 2.461677,-2.989 c 0.0199,-0.87212 -0.06918,-2.18126 -0.17201,-2.52799 -0.120347,-0.40581 -0.445472,-0.81594 -0.783971,-0.98895 -0.404883,-0.20694 -1.181209,-0.22707 -1.557108,-0.0404 -0.541166,0.26876 -0.864293,0.79714 -0.992736,1.62335 -0.132022,0.8492 0.09984,1.7647 0.552634,2.18202 0.490649,0.45223 0.87128,0.55141 2.058204,0.53629 l 0.877346,-0.0112 z m -3.79993,-7.03333 c -0.525838,-0.21061 -0.779673,-0.62573 -0.782882,-1.28031 -0.0045,-0.91976 0.506586,-1.39493 1.436699,-1.3357 0.692696,0.0441 1.14488,0.49689 1.203618,1.20521 0.07412,0.89372 -0.455668,1.47856 -1.33386,1.4725 -0.206803,-0.001 -0.442415,-0.0292 -0.523575,-0.0617 z m 3.241531,-0.0587 c -0.785739,-0.4152 -0.930338,-1.64697 -0.266156,-2.26734 0.242943,-0.22691 0.465081,-0.30192 0.889328,-0.30028 0.833604,0.003 1.326241,0.52099 1.327256,1.39499 6.26e-4,0.52889 -0.247838,0.94611 -0.702165,1.1791 -0.313683,0.16087 -0.937702,0.15763 -1.248263,-0.006 z m 11.225581,-2.73178 c -1.168537,-0.10922 -2.091574,-0.24195 -3.070711,-0.44156 -0.980942,-0.19997 -2.207121,-0.5151 -2.279377,-0.5858 -0.0534,-0.0522 0.01858,-0.58307 0.959616,-7.07619 0.241803,-1.66848 0.483305,-3.42939 0.53666,-3.91314 0.05336,-0.48374 0.103458,-0.88598 0.111329,-0.89385 0.0079,-0.008 0.239785,0.0413 0.515372,0.10934 0.736814,0.18181 1.877452,0.22284 2.539435,0.0913 0.475359,-0.0944 1.498783,-0.50001 1.431497,-0.5673 -0.0146,-0.0146 -0.152677,0.003 -0.306846,0.0386 -0.493313,0.1147 -1.942194,0.0256 -2.693008,-0.16559 -1.338905,-0.34095 -2.174753,-0.87195 -2.92704,-1.85953 -0.268587,-0.35259 -0.825664,-1.0656 -1.237941,-1.58445 -1.126814,-1.4181 -3.071144,-4.05859 -3.314389,-4.5011 -0.578484,-1.05237 -0.585403,-1.56357 -0.05025,-3.71171 0.206076,-0.82721 0.521044,-2.18083 0.699922,-3.00805 0.178878,-0.82721 0.36596,-1.60234 0.415743,-1.7225 0.116969,-0.28234 0.308563,-0.48466 0.600926,-0.63459 0.247505,-0.12692 1.326434,-0.32974 2.115645,-0.3977 0.526859,-0.0454 1.79473,-0.21324 1.949313,-0.25809 0.08455,-0.0245 0.106108,0.0508 0.134948,0.47163 0.05781,0.84341 0.343306,1.20634 1.01497,1.29026 0.617796,0.0772 1.492279,-0.20251 1.959321,-0.62668 0.164741,-0.14962 0.28406,-0.28792 0.265153,-0.30734 -0.01891,-0.0194 -0.211064,0.0361 -0.427023,0.12328 -0.814384,0.32894 -1.897662,0.44737 -2.092032,0.22871 -0.138107,-0.15537 -0.234521,-0.55171 -0.234928,-0.96577 l -6.27e-4,-0.35477 1.305241,-0.31891 c 0.718164,-0.1754 1.397756,-0.31891 1.510489,-0.31891 0.410761,0 0.756598,0.62257 0.756598,1.36202 0,1.52622 -1.013535,2.71356 -2.973809,3.4838 -0.961665,0.37786 -1.803529,0.38753 -3.001282,0.0345 -0.235956,-0.0696 -0.445529,-0.10993 -0.46572,-0.0897 -0.0732,0.0732 0.391077,0.47322 0.794781,0.6848 0.227308,0.11913 0.606165,0.27869 0.841908,0.35458 l 0.428621,0.13797 -0.04233,0.22776 c -0.07584,0.40802 -0.278513,0.90819 -0.459641,1.13434 -0.271414,0.33887 -0.806119,0.67741 -1.391992,0.88131 l -0.529967,0.18445 0.4743,8.4e-4 c 0.492216,8.7e-4 0.981556,-0.11261 1.396133,-0.32378 0.132592,-0.0675 0.257376,-0.10649 0.277304,-0.0866 0.01992,0.0199 0.0038,0.21224 -0.0358,0.42738 -0.09316,0.50597 -0.492411,1.30552 -0.860288,1.72284 -0.159515,0.18095 -0.269809,0.329 -0.245093,0.329 0.0909,0 0.899887,-0.69358 1.114593,-0.9556 0.205073,-0.25027 0.634766,-0.92006 0.682914,-1.0645 0.03309,-0.0993 1.50374,0.41987 2.362542,0.83402 1.037437,0.50029 1.734388,0.97392 2.38694,1.62212 1.193297,1.18534 1.884326,2.6752 1.984043,4.27762 0.02084,0.33492 0.05936,0.59567 0.0856,0.57946 0.02624,-0.0162 0.0823,-0.23384 0.124589,-0.4836 0.1637,-0.96689 -0.03529,-2.48768 -0.466566,-3.5657 -0.08969,-0.2242 -0.16308,-0.43076 -0.16308,-0.45902 0,-0.0283 0.387755,-0.0347 0.861679,-0.0143 1.359486,0.0585 2.178018,0.35538 3.089111,1.12036 0.327319,0.27483 0.414859,0.32634 0.333918,0.19649 -0.228636,-0.36681 -0.559427,-0.75503 -1.012809,-1.18863 l -0.469091,-0.44864 0.604704,-0.1937 c 0.735793,-0.2357 0.938021,-0.23863 2.067177,-0.03 1.29654,0.23959 1.89479,0.15873 2.52952,-0.34189 l 0.23658,-0.18659 0.71782,0.1534 c 0.3948,0.0844 0.73102,0.1666 0.74713,0.18272 0.0938,0.0938 -0.4805,2.95447 -0.84847,4.22656 -0.71732,2.47988 -1.43406,3.64466 -2.5919,4.21215 -0.60803,0.29802 -1.099768,0.41961 -1.927268,0.47658 l -0.672047,0.0463 0.376005,0.14513 c 0.628324,0.24251 1.243287,0.33675 1.9427,0.29772 l 0.62667,-0.035 0.005,1.76869 c 0.005,1.58787 0.0347,2.08585 0.29421,4.87075 0.159,1.70612 0.30831,3.34493 0.3318,3.64179 l 0.0427,0.53976 -0.30559,0.10698 c -1.15694,0.40502 -2.555071,0.74249 -3.902079,0.94185 -1.560166,0.2309 -3.875452,0.28131 -5.584315,0.12158 z m 1.028601,-2.12459 c 0.209586,-1.84729 0.370428,-3.53734 0.477126,-5.0134 0.06977,-0.96508 0.1543,-2.0508 0.187852,-2.4127 0.03355,-0.36191 0.06103,-0.67916 0.06106,-0.70502 2.5e-5,-0.0259 -0.401806,-0.0444 -0.892963,-0.0413 l -0.893013,0.006 0.427737,0.11397 c 0.235254,0.0627 0.437984,0.12421 0.450511,0.13673 0.01253,0.0125 0.03155,1.91648 0.04227,4.231 0.01072,2.31451 0.03688,4.17511 0.05813,4.13466 0.02124,-0.0405 0.05783,-0.24275 0.08129,-0.44955 z m 3.23136,-3.67383 c 0.0998,-0.97803 0.253754,-2.37867 0.342121,-3.11252 0.08836,-0.73386 0.160655,-1.34721 0.160655,-1.36302 0,-0.0493 -1.181873,-0.0314 -1.208288,0.0182 -0.0275,0.0517 0.0058,0.53273 0.239572,3.46239 0.201533,2.52545 0.229621,2.82801 0.259714,2.79792 0.01362,-0.0136 0.106428,-0.82498 0.206226,-1.80302 z m 15.632124,-1.4598 c -0.28548,-0.12431 -0.64201,-0.45999 -0.79783,-0.75119 -0.11847,-0.22138 -0.13731,-0.3555 -0.13731,-0.97728 0,-0.70437 0.005,-0.72988 0.21934,-1.12743 0.15884,-0.29458 0.51315,-0.71072 1.284685,-1.50889 0.58595,-0.60617 1.14996,-1.24743 1.25336,-1.42502 0.1034,-0.1776 0.2071,-0.32346 0.23045,-0.32414 0.0715,-0.002 0.41193,0.94716 0.48281,1.34611 0.34492,1.9416 0.45777,2.78547 0.42322,3.16471 -0.0741,0.81369 -0.52599,1.3644 -1.31074,1.59744 -0.39784,0.11815 -1.381915,0.12155 -1.647985,0.006 z m -1.09181,-3.49931 c 0,-0.009 -0.0877,-0.26974 -0.1948,-0.57968 -0.27043,-0.7823 -0.32449,-1.81098 -0.129,-2.45457 0.18183,-0.59864 0.52425,-1.09865 1.31428,-1.91914 0.792685,-0.82326 0.920705,-0.98689 1.253285,-1.60187 l 0.24948,-0.46133 0.15871,0.27332 c 0.38034,0.65498 0.59723,1.86954 0.48065,2.69156 -0.10732,0.75671 -0.31897,1.07182 -1.53262,2.28183 -0.587705,0.58595 -1.175525,1.22751 -1.306275,1.42569 -0.20331,0.30816 -0.29371,0.41409 -0.29371,0.34419 z m -0.56968,-4.47234 c -0.40889,-0.93703 -0.4481,-1.12341 -0.4929,-2.34228 -0.038,-1.03288 -0.0586,-1.19353 -0.18952,-1.47268 -0.19505,-0.41601 -0.23891,-1.0718 -0.10241,-1.53107 0.32887,-1.10654 -0.21535,-3.47393 -1.04183,-4.53202 -0.10096,-0.12926 -0.15995,-0.23501 -0.13109,-0.23501 0.12548,0 0.96381,0.26251 1.33675,0.41857 0.62479,0.26147 1.12364,0.57313 1.51863,0.9488 0.56484,0.53722 0.72403,0.83002 1.498035,2.75533 0.10097,0.25115 0.25597,0.72859 0.34444,1.06097 0.3636,1.3661 0.0567,2.15373 -1.484375,3.80913 -0.35294,0.37914 -0.74986,0.85506 -0.88205,1.0576 l -0.24034,0.36825 z m -46.681678,-3.07502 c -0.365106,-0.0614 -1.093266,-0.28163 -1.329508,-0.40215 -0.628542,-0.32066 -1.161542,-1.05104 -1.392995,-1.90884 -0.138936,-0.51493 -0.185479,-1.44637 -0.13062,-2.61405 l 0.04647,-0.98904 0.290977,0.16822 c 0.890465,0.51479 1.378094,0.93068 1.66475,1.41982 0.09372,0.15992 0.283457,0.6233 0.421646,1.02975 0.47647,1.4014 1.029312,2.30834 1.783236,2.92541 0.251837,0.20613 0.364302,0.33587 0.317142,0.36587 -0.07532,0.0479 -1.392347,0.0519 -1.671096,0.005 z m 2.757373,-0.2621 c -0.946413,-0.30411 -1.540053,-0.97651 -2.352079,-2.66414 -0.637352,-1.32461 -0.628788,-1.22909 -0.110202,-1.22909 0.83146,0 1.458982,0.11248 1.942768,0.34821 0.374481,0.18248 0.540774,0.31901 0.971348,0.79748 1.023951,1.13788 1.58419,1.62128 2.302143,1.9864 0.257927,0.13118 0.270034,0.14797 0.163098,0.22616 -0.208626,0.15255 -1.042961,0.47224 -1.467102,0.56214 -0.551636,0.11692 -1.02945,0.10797 -1.449974,-0.0272 z m 3.506327,-1.02912 c -0.419234,-0.15702 -0.969042,-0.57721 -1.800987,-1.37642 -0.457983,-0.43996 -0.988087,-0.88762 -1.178009,-0.99481 -0.328996,-0.18567 -0.339346,-0.19906 -0.219045,-0.28332 0.247259,-0.17319 1.045012,-0.52046 1.412573,-0.61492 0.904086,-0.23232 1.470206,-0.0329 2.811167,0.99024 0.591219,0.4511 1.242974,0.84544 1.6875,1.02101 0.163588,0.0646 0.29754,0.1345 0.297671,0.15532 6.27e-4,0.0664 -1.219335,0.8629 -1.53983,1.00547 -0.380311,0.16917 -1.144366,0.21978 -1.47104,0.0974 z M 47.557842,129.7842 c -0.549132,-0.29874 -0.89862,-0.57005 -1.388495,-1.07788 -0.676688,-0.70149 -0.969074,-1.50967 -0.911227,-2.51872 0.04756,-0.82961 0.268445,-1.3591 1.038404,-2.48916 0.287551,-0.42204 0.579737,-0.95279 0.647767,-1.17666 0.05746,-0.18907 0.636684,0.88474 0.902652,1.67341 0.196484,0.58262 0.21615,1.17572 0.06399,1.92974 -0.272409,1.34987 -0.243636,2.25533 0.104816,3.2985 0.244367,0.73157 0.235923,0.73822 -0.457902,0.36077 z m 48.345483,-1.30028 c -0.98519,-0.30303 -1.40594,-0.51489 -1.8041,-0.90846 -0.39347,-0.38891 -0.60022,-0.77116 -1.10659,-2.04587 -0.21223,-0.53424 -0.49461,-1.14055 -0.62751,-1.34736 -0.18274,-0.28434 -0.23327,-0.41824 -0.20732,-0.54926 0.0189,-0.0953 0.057,-0.1873 0.0848,-0.20445 0.081,-0.05 1.25141,0.14334 1.69248,0.27965 1.01212,0.31279 1.61416,0.98064 2.09387,2.32276 0.13811,0.38637 0.78563,2.58747 0.78563,2.67054 0,0.0504 -0.17923,0.008 -0.91123,-0.21755 z m -35.129009,-0.0438 c -0.341325,-0.10512 -1.001979,-0.52715 -1.915829,-1.22383 -0.364519,-0.27789 -0.805016,-0.5676 -0.978887,-0.6438 l -0.316126,-0.13855 0.370929,-0.2979 c 0.563263,-0.45238 1.224431,-0.75336 1.718283,-0.78221 0.548278,-0.032 0.991727,0.1406 2.229248,0.86782 0.919027,0.54006 1.675732,0.87468 1.978015,0.87468 0.134535,0 0.134742,0.002 0.01685,0.13219 -0.06566,0.0727 -0.288584,0.26494 -0.495387,0.42718 -0.978887,0.76795 -1.82958,1.0239 -2.607091,0.78442 z m 27.298239,-0.72566 c -0.524202,-0.12266 -0.878262,-0.49856 -0.946256,-1.00464 -0.04155,-0.30924 -0.02262,-0.39524 0.591966,-2.68873 0.60599,-2.26142 0.89103,-3.45327 1.2571,-5.25639 0.31908,-1.57169 0.3706,-1.71303 0.71923,-1.97332 0.25638,-0.19141 1.1216,-0.18193 1.62102,0.0178 0.84933,0.33962 1.31009,0.95455 1.35328,1.80611 0.0375,0.73965 -0.39655,2.3167 -1.5064,5.47303 -0.75157,2.13743 -1.07513,2.84778 -1.48291,3.25556 -0.4098,0.4098 -0.9284,0.5294 -1.60703,0.37062 z m -3.73492,-0.0565 c -0.514344,-0.0842 -0.942746,-0.39897 -1.179379,-0.86655 -0.20664,-0.40831 -0.202999,-0.55943 0.05227,-2.17045 0.326104,-2.05811 0.628118,-4.15346 0.975503,-6.7681 0.155698,-1.17188 0.299056,-2.20662 0.318571,-2.2994 0.06413,-0.30496 0.375485,-0.65457 0.743106,-0.83443 0.325282,-0.15915 0.390826,-0.16881 0.960242,-0.14149 0.969487,0.0465 1.708647,0.42368 2.113177,1.07833 0.38389,0.62124 0.28897,1.23911 -1.256849,8.18174 -0.603752,2.71161 -0.656042,2.884 -0.982045,3.23767 -0.37051,0.40196 -0.581167,0.49866 -1.331179,0.61106 -0.06893,0.0103 -0.254975,-0.002 -0.413418,-0.0284 z m 8.27875,-0.19124 c -0.70957,-0.0683 -1.3658,-0.21894 -1.61582,-0.37099 -0.20003,-0.12164 -0.20231,-0.1281 -0.11598,-0.32808 0.53457,-1.23829 0.66424,-1.55774 0.72513,-1.78635 0.039,-0.14649 0.0844,-0.26634 0.10084,-0.26634 0.0164,0 0.21029,0.37965 0.43078,0.84367 0.22049,0.46402 0.55845,1.0854 0.75103,1.38085 0.35779,0.5489 0.38516,0.60188 0.30315,0.58698 -0.0259,-0.005 -0.28646,-0.0316 -0.57913,-0.0597 z m -28.339559,-0.84179 c -0.389535,-0.0964 -1.017358,-0.39533 -1.708305,-0.81327 -0.61487,-0.37192 -1.273613,-0.69554 -1.588285,-0.78027 l -0.266475,-0.0718 0.126463,-0.1776 c 0.1849,-0.25967 0.979275,-0.84822 1.411944,-1.04611 0.857374,-0.39213 1.865564,-0.15871 3.291546,0.76209 0.258354,0.16682 0.760835,0.44817 1.11663,0.62521 l 0.646905,0.3219 -0.208232,0.15419 c -0.41761,0.30923 -1.032442,0.67971 -1.430243,0.86181 -0.503559,0.23051 -0.923119,0.27988 -1.391948,0.1638 z m 16.056163,-0.0292 c -0.439018,-0.0756 -0.759676,-0.23413 -1.051725,-0.52006 -0.406011,-0.39751 -0.453407,-0.63048 -0.414327,-2.03666 0.01793,-0.64499 0.04414,-1.23094 0.05826,-1.30211 0.01412,-0.0712 0.185828,-0.23971 0.381583,-0.37453 1.062529,-0.73179 1.724574,-2.23305 1.532028,-3.47403 -0.179261,-1.15534 -0.702823,-1.83935 -1.506222,-1.96782 l -0.225935,-0.0361 0.0503,-0.64376 c 0.160341,-2.05229 0.203801,-2.32903 0.413625,-2.63401 0.380956,-0.55369 1.273167,-0.79348 2.292154,-0.61604 1.248928,0.2175 1.787593,0.74721 1.790012,1.76027 0.0026,1.09773 -0.377409,4.42563 -0.944626,8.27212 -0.39035,2.64709 -0.418049,2.74795 -0.865652,3.15234 -0.417291,0.377 -0.930833,0.52003 -1.509475,0.42042 z m -36.089816,-0.51042 c -0.274166,-0.4188 -0.576399,-1.08125 -0.796725,-1.74632 -0.14947,-0.45118 -0.176839,-0.63813 -0.178901,-1.22201 -0.0023,-0.65026 0.0091,-0.71374 0.201269,-1.11946 0.144973,-0.30611 0.33469,-0.56026 0.65801,-0.88148 0.724856,-0.72014 0.90025,-0.83661 2.824689,-1.87565 l 0.427689,-0.23092 -0.03983,0.36173 c -0.0656,0.59577 -0.278321,1.71292 -0.408958,2.14775 -0.100804,0.33554 -0.211821,0.51229 -0.629783,1.00268 -1.187076,1.3928 -1.599492,2.22045 -1.725295,3.46239 -0.02357,0.23265 -0.06056,0.423 -0.0822,0.423 -0.02164,0 -0.134127,-0.14477 -0.249965,-0.32171 z m 32.339311,-0.66953 c -0.06471,-0.0442 -0.07528,-0.17313 -0.04519,-0.55159 0.09088,-1.14335 0.09193,-1.1479 0.275143,-1.19371 0.09231,-0.0231 0.407345,-0.13591 0.700078,-0.25073 0.292733,-0.11483 0.549958,-0.20877 0.571603,-0.20877 0.09678,0 0.112545,0.64286 0.02769,1.12894 -0.09772,0.55974 -0.216159,0.77843 -0.517045,0.95467 -0.215464,0.12619 -0.887279,0.20662 -1.012276,0.12119 z m -8.661406,-0.40896 c -0.335698,-0.0921 -0.902921,-0.39911 -1.343624,-0.72726 -0.697309,-0.51922 -1.955022,-1.13125 -2.324705,-1.13125 -0.169685,0 -0.08459,-0.12241 0.303675,-0.43681 0.487993,-0.39515 1.271074,-0.78448 1.786603,-0.88824 0.762257,-0.15343 1.625478,0.11347 2.582036,0.79832 0.277072,0.19837 0.502744,0.37689 0.501491,0.3967 -0.0013,0.0198 -0.107506,0.48723 -0.236125,1.03871 l -0.233844,1.00268 -0.374884,0.0128 c -0.206189,0.007 -0.503471,-0.0225 -0.660623,-0.0656 z m 37.752982,-0.2236 c -0.85433,-0.23206 -1.58591,-0.70283 -1.80294,-1.16018 -0.14354,-0.30249 -0.13295,-0.32654 0.19272,-0.43751 0.39665,-0.13515 0.47456,-0.12911 1.18748,0.092 0.73868,0.22912 1.0712,0.21413 1.64847,-0.0743 0.3823,-0.19103 1.07156,-0.81466 1.54983,-1.40225 l 0.25504,-0.31334 0.68205,0.005 c 0.37513,0.003 0.75746,0.0363 0.84961,0.075 0.16677,0.07 0.16717,0.0717 0.086,0.37936 -0.26267,0.99573 -1.14186,2.09731 -2.03413,2.54863 -0.77086,0.38991 -1.81527,0.50496 -2.61415,0.28797 z m -6.035145,-0.44976 c -0.99179,-0.19455 -2.34593,-0.88494 -2.5749,-1.31277 -0.0553,-0.10325 -0.0301,-0.12659 0.20409,-0.18908 0.14693,-0.0392 0.63174,-0.21188 1.07738,-0.38373 0.44563,-0.17185 1.09381,-0.36649 1.44039,-0.43253 0.834515,-0.15901 1.161245,-0.33042 1.896355,-0.99486 0.50443,-0.45592 1.39142,-1.44096 1.59684,-1.77333 0.0791,-0.12805 0.40168,0.24098 0.51366,0.58773 0.25458,0.78823 0.16585,2.23462 -0.18219,2.97033 -0.18682,0.39492 -0.77072,0.96217 -1.22993,1.19487 -0.70108,0.35526 -1.89192,0.50006 -2.741695,0.33337 z m -6.33374,-1.47912 c -0.167,-0.0279 -0.75201,-0.20799 -0.75201,-0.23143 0,-0.008 0.0943,-0.29448 0.20961,-0.63731 0.11529,-0.34282 0.24131,-0.76432 0.28003,-0.93666 0.0387,-0.17233 0.14446,-0.63137 0.23494,-1.02008 l 0.16453,-0.70674 0.22913,0.0414 c 0.35389,0.064 0.53832,0.18083 1.09375,0.69281 0.76838,0.70827 1.63035,1.33335 2.28801,1.65922 l 0.58656,0.29064 -0.36344,0.17193 c -0.38557,0.18241 -1.46321,0.4715 -2.33429,0.6262 -0.489,0.0868 -1.27349,0.1108 -1.63682,0.05 z m 11.025545,0.002 c -0.0875,-0.0236 -0.0851,-0.0749 0.0221,-0.4784 0.21247,-0.80001 0.21513,-2.26391 0.006,-3.03703 -0.021,-0.0776 -0.0121,-0.141 0.0199,-0.141 0.032,0 0.36665,0.19887 0.74366,0.44193 0.77934,0.50247 1.64003,0.93575 2.3754,1.19582 0.3099,0.1096 0.4962,0.20846 0.48463,0.25716 -0.0374,0.15726 -0.45206,0.71214 -0.74603,0.99828 -0.45071,0.43867 -0.68774,0.53329 -1.69572,0.67687 -0.89106,0.12692 -1.02386,0.1364 -1.20946,0.0864 z m -34.969209,-0.77907 c -0.123192,-0.10271 -0.433077,-0.29677 -0.688622,-0.43124 l -0.464643,-0.2445 0.187288,-0.0734 c 0.82203,-0.32221 1.471968,-0.45771 1.471968,-0.30687 0,0.17907 -0.210563,1.24917 -0.245187,1.24607 -0.02025,-0.002 -0.137612,-0.0873 -0.260804,-0.19005 z m 29.051074,-0.60126 c -0.41454,-0.0928 -0.99638,-0.31731 -1.36546,-0.52693 -0.44046,-0.25015 -1.40931,-0.97135 -1.95592,-1.45595 l -0.31334,-0.27779 0.50134,-0.15803 c 0.27574,-0.0869 0.86453,-0.24877 1.30843,-0.35967 0.96275,-0.24053 1.66925,-0.24507 2.18529,-0.014 l 0.29767,0.13326 v 0.42903 c 0,0.56829 0.13837,1.07313 0.41089,1.49915 0.21683,0.33897 0.21983,0.35195 0.10969,0.47567 -0.22257,0.25001 -0.72041,0.35786 -1.17859,0.25531 z m -55.34407,-0.5013 c -0.06123,-0.24297 0.07576,-1.51159 0.228053,-2.11183 0.476965,-1.87997 1.720339,-2.70211 4.261274,-2.81764 0.533738,-0.0243 1.636439,0.0512 1.9567,0.13388 l 0.170674,0.0441 -0.536566,0.6152 c -1.131143,1.29691 -1.353016,1.46208 -2.622482,1.95223 -1.46613,0.56609 -2.34378,1.13642 -2.995889,1.94682 -0.16544,0.2056 -0.326994,0.38288 -0.359007,0.39394 -0.03201,0.0111 -0.07825,-0.0594 -0.102757,-0.15667 z m 57.014725,-0.5155 c -0.270285,-0.68396 -0.343475,-1.07109 -0.308225,-1.63014 0.0801,-1.26973 0.924055,-2.34074 2.165545,-2.74812 0.66134,-0.217 1.68077,-0.23029 2.22798,-0.029 0.38495,0.14159 0.81564,0.43638 1.00574,0.68841 0.10987,0.14565 0.10932,0.15028 -0.0217,0.18456 -0.074,0.0193 -0.3311,0.1294 -0.57143,0.24457 -0.43161,0.20684 -0.7488,0.48558 -1.5311,1.34547 -0.40089,0.44064 -2.57009,2.40243 -2.68325,2.42669 -0.0553,0.0119 -0.1558,-0.15924 -0.28351,-0.4824 z m 9.82886,0.39355 c -0.51071,-0.0976 -1.19396,-0.30287 -1.55645,-0.46757 -0.22967,-0.10434 -0.62908,-0.24649 -0.88759,-0.31589 -0.8445,-0.22673 -1.42987,-0.56569 -2.52952,-1.46474 -0.29511,-0.24127 -0.5376,-0.4671 -0.53887,-0.50184 -0.004,-0.10502 0.75679,-0.58527 1.1398,-0.71964 0.23471,-0.0823 0.51898,-0.12587 0.82208,-0.12587 h 0.46332 l 0.10768,-0.38377 c 0.1624,-0.57877 0.18926,-1.20545 0.0729,-1.69993 -0.11133,-0.47301 -0.38495,-1.05556 -0.6358,-1.35368 -0.16042,-0.19065 -0.16155,-0.19734 -0.0332,-0.19734 0.20732,0 0.87023,0.23947 1.33027,0.48055 1.06659,0.55894 1.92648,1.77532 1.93072,2.73116 7.5e-4,0.16372 0.0129,0.29767 0.0271,0.29767 0.0142,0 0.30206,-0.0735 0.63978,-0.16343 0.51067,-0.13592 0.7148,-0.15938 1.21266,-0.13939 0.52991,0.0213 0.65252,0.0497 1.06791,0.24779 0.25811,0.12306 0.77772,0.41484 1.1547,0.6484 0.7009,0.43426 1.87168,1.03599 2.0157,1.03599 0.50025,0 -0.9856,0.9384 -1.83697,1.16015 -1.03158,0.2687 -1.72931,0.0281 -3.72852,-1.28588 -0.94273,-0.61959 -0.95457,-0.62517 -1.03212,-0.48553 -0.12354,0.22243 -0.1029,0.27412 0.23684,0.59308 0.52867,0.49633 1.22582,0.98927 1.89125,1.33726 0.5719,0.29907 0.61833,0.3365 0.51301,0.41351 -0.35629,0.26054 -1.35051,0.45379 -1.84665,0.35894 z m -39.501803,-2.0318 c -0.399299,-0.31409 -0.811238,-1.1442 -1.366723,-2.75414 -0.172443,-0.49977 -0.411432,-1.08831 -0.531083,-1.30785 -0.119658,-0.21955 -0.204322,-0.41242 -0.188147,-0.42859 0.04826,-0.0483 0.915285,0.10256 1.386489,0.24118 1.113678,0.32764 1.864925,0.92028 2.298992,1.81364 0.231174,0.47579 0.615051,1.50722 0.615051,1.65257 0,0.05 -0.121864,0.0971 -0.318634,0.12321 -0.437106,0.058 -0.912766,0.24508 -1.363176,0.53619 l -0.378851,0.24487 z m -1.764813,-0.2772 c -1.645106,-0.38417 -2.339243,-0.83573 -2.854872,-1.85719 -0.09942,-0.19695 -0.351791,-0.85694 -0.560812,-1.46663 -0.406017,-1.18431 -0.545528,-1.49782 -0.901762,-2.02646 -0.124276,-0.18441 -0.225954,-0.34117 -0.225954,-0.34836 0,-0.007 0.197359,0.008 0.438573,0.0338 1.028989,0.10995 2.111384,0.5406 2.657939,1.05751 0.453864,0.42925 0.738851,0.99706 1.257989,2.5064 0.231175,0.67211 0.52335,1.43352 0.64928,1.69202 0.125931,0.25851 0.238363,0.49116 0.24985,0.51701 0.02797,0.0629 0.0111,0.0603 -0.710231,-0.1081 z m 47.871966,-0.16769 c -0.50427,-0.0574 -0.66138,-0.12848 -1.77829,-0.80422 -0.52106,-0.31525 -1.21774,-0.70388 -1.54818,-0.86364 l -0.6008,-0.29046 0.24331,-0.20636 c 0.31043,-0.26327 1.15039,-0.6771 1.62555,-0.80087 0.4772,-0.12429 1.11645,-0.12188 1.50499,0.006 0.16985,0.0558 0.99974,0.43432 1.84418,0.84123 0.84445,0.40691 1.61291,0.75914 1.7077,0.78274 0.0948,0.0236 0.17233,0.062 0.17233,0.0854 0,0.0692 -0.59577,0.49331 -1.02231,0.72777 -0.7882,0.43325 -1.47239,0.5997 -2.14848,0.52271 z m -20.505515,-0.66481 c 0.0238,-0.41025 0.0653,-0.55729 0.26425,-0.93596 0.59291,-1.12832 1.88705,-1.79606 3.27946,-1.69212 0.40496,0.0302 1.144315,0.27776 1.144315,0.38311 0,0.0182 -0.14805,0.2179 -0.32901,0.44381 -0.496425,0.61977 -0.771135,1.10846 -0.962385,1.71201 l -0.17289,0.54563 -0.44288,-0.15708 c -0.38565,-0.13678 -0.54814,-0.15712 -1.25755,-0.15744 -0.75843,-3.2e-4 -0.84012,0.0115 -1.18309,0.17219 l -0.3684,0.17256 z m -22.082746,-0.0295 c -0.01557,-0.14719 -0.01184,-1.02903 0.0083,-1.95964 0.04186,-1.93621 0.07197,-2.06124 0.61047,-2.53524 0.457248,-0.40249 0.861673,-0.52823 1.711659,-0.53215 0.827124,-0.004 1.249873,0.10674 1.606941,0.42025 0.294155,0.25827 0.397281,0.48019 0.437388,0.94121 0.04476,0.5145 -0.07567,3.05238 -0.148284,3.125 -0.112112,0.11211 -1.511473,0.41893 -2.648056,0.5806 -0.637643,0.0907 -1.247267,0.17902 -1.354723,0.19625 -0.189896,0.0305 -0.196169,0.0238 -0.223673,-0.23628 z m -9.231763,-0.59202 c -1.161493,-0.25821 -1.910384,-0.55129 -2.312058,-0.90486 -0.394054,-0.34686 -0.810837,-1.04441 -1.244102,-2.08221 -0.492335,-1.17928 -0.878079,-1.91348 -1.193742,-2.27209 l -0.260522,-0.29596 0.593851,0.0374 c 0.764168,0.0481 1.696299,0.28906 2.256052,0.5832 0.812911,0.42718 1.181102,0.98926 1.782297,2.7209 0.197447,0.56871 0.494667,1.30897 0.660485,1.64503 l 0.301494,0.61101 -0.229213,-0.007 c -0.126062,-0.004 -0.285608,-0.0198 -0.354542,-0.0351 z m 8.184449,-0.56182 c -0.08268,-0.18865 -0.273036,-0.47948 -0.423006,-0.64628 -0.149963,-0.1668 -0.272666,-0.31774 -0.272666,-0.33541 0,-0.0477 0.635762,0.10995 0.799011,0.19813 0.152226,0.0822 0.170632,0.25571 0.08851,0.83416 l -0.04151,0.2924 z m 33.113495,0.11996 c -0.22128,-0.0209 -0.27482,-0.0604 -0.45676,-0.33665 -0.2317,-0.35186 -0.76937,-0.7341 -1.28622,-0.9144 -0.25585,-0.0893 -0.5185,-0.11339 -1.23373,-0.11339 -0.84064,0 -0.938,0.0124 -1.30035,0.16506 -0.21542,0.0908 -0.39167,0.14964 -0.39167,0.13082 0,-0.12314 0.45711,-0.70391 0.81438,-1.03468 0.70299,-0.65086 1.36883,-0.90034 2.25116,-0.84349 0.85282,0.0549 1.53982,0.49522 1.89337,1.2134 0.18572,0.37724 0.20656,0.47447 0.20545,0.95837 -0.001,0.49523 -0.0858,0.83755 -0.20016,0.8096 -0.0246,-0.006 -0.1576,-0.0216 -0.29547,-0.0346 z m 14.41355,-0.0597 c -0.40944,-0.0916 -1.08516,-0.35375 -2.17483,-0.84363 -0.67915,-0.30532 -1.24787,-0.55513 -1.26382,-0.55513 -0.016,0 -0.16267,-0.0573 -0.32604,-0.12732 l -0.29702,-0.12732 0.18216,-0.1924 c 0.69105,-0.72989 2.02677,-1.30445 3.03783,-1.30673 1.11074,-0.002 1.76528,0.58561 1.8545,1.66629 0.0578,0.70034 -0.15501,1.2019 -0.6098,1.43708 -0.18331,0.0948 -0.19352,0.096 -0.40298,0.0492 z m -75.459609,-0.91969 c 0.282466,-0.67604 1.381786,-1.86869 2.271979,-2.46488 0.447794,-0.29989 0.817258,-0.39572 1.521529,-0.39464 1.013523,0.002 1.893865,0.28286 3.039524,0.97123 0.626694,0.37654 1.414782,0.95346 1.415347,1.0361 1.26e-4,0.0188 -0.176018,0.0939 -0.391438,0.16692 -0.21542,0.073 -0.673677,0.23728 -1.018348,0.3651 -0.880725,0.32662 -1.504764,0.357 -2.6559,0.12927 -1.109382,-0.21947 -1.61703,-0.25643 -2.29529,-0.16712 -0.470435,0.0619 -1.410358,0.33078 -1.868248,0.53434 -0.107825,0.0479 -0.108864,0.0384 -0.01915,-0.17632 z m 15.768723,0.14273 c -0.685871,-0.087 -1.521468,-0.30212 -1.93755,-0.49889 -0.569943,-0.26954 -0.99825,-0.74425 -1.900808,-2.10674 -0.794195,-1.1989 -1.443629,-1.93358 -1.932881,-2.18658 -0.277527,-0.14351 -0.161162,-0.19681 0.545383,-0.24978 1.107172,-0.083 2.437519,0.17721 3.111803,0.60868 0.596339,0.3816 0.98239,0.99215 1.886551,2.98362 0.219776,0.48408 0.48778,1.0108 0.595555,1.17049 0.107776,0.1597 0.195956,0.30304 0.195956,0.31855 0,0.0318 -0.0056,0.0315 -0.564009,-0.0394 z m -5.221004,-0.87819 c -1.128382,-0.11919 -1.526542,-0.29577 -2.487109,-1.10304 -0.875456,-0.73575 -1.410726,-1.08888 -2.016403,-1.3303 -0.462607,-0.1844 -1.276327,-0.37921 -1.600007,-0.38307 l -0.174978,-0.002 0.156669,-0.1328 c 0.278033,-0.23569 1.29573,-0.67976 1.925314,-0.84012 2.124692,-0.54117 3.377104,0.003 4.775579,2.07377 0.256009,0.37914 0.643766,0.92245 0.86168,1.20735 0.217914,0.28491 0.39621,0.53166 0.39621,0.54835 0,0.0467 -1.287284,0.02 -1.836955,-0.038 z m 28.094905,-5.58816 c 0,-0.0427 0.05745,-0.17137 0.127366,-0.28606 0.137994,-0.22634 0.273951,-0.29695 1.900526,-0.98698 l 0.931447,-0.39515 -0.03961,0.19803 c -0.02178,0.10891 -0.06023,0.21794 -0.08543,0.24228 -0.0252,0.0243 -0.525235,0.26045 -1.111177,0.52467 -0.585942,0.26422 -1.213401,0.54798 -1.394354,0.63058 -0.222113,0.10139 -0.32893,0.12498 -0.328773,0.0726 z m -17.391327,-0.39853 c 0.05217,-0.12484 0.09484,-0.23545 0.09484,-0.24578 0,-0.0389 1.004072,-0.49494 1.86436,-0.84673 0.744441,-0.30441 0.893013,-0.34724 0.893013,-0.25745 0,0.22824 -0.210193,0.37956 -1.015196,0.73085 -0.458426,0.20005 -1.056381,0.47226 -1.328797,0.60491 -0.272416,0.13265 -0.519552,0.24119 -0.549181,0.24119 -0.02964,0 -0.01121,-0.10215 0.04096,-0.22699 z m -18.077239,-0.37049 c -0.925199,-0.26029 -1.562768,-0.95073 -1.76302,-1.90922 -0.09386,-0.44924 -0.03459,-1.73945 0.100758,-2.19336 0.05652,-0.18957 0.203931,-0.56317 0.327573,-0.83022 0.204551,-0.44181 0.21613,-0.49544 0.128533,-0.59534 -0.05295,-0.0604 -0.148389,-0.2085 -0.212091,-0.32913 -0.16307,-0.30881 -0.150848,-1.18559 0.0254,-1.82179 0.14342,-0.51771 0.828025,-2.126275 0.904945,-2.126275 0.09273,0 0.04501,0.19217 -0.198114,0.79772 -0.249382,0.621145 -0.444643,1.409315 -0.442139,1.784685 0.0031,0.46313 0.436583,1.03719 0.671385,0.88908 0.05285,-0.0333 0.1461,-0.1865 0.207219,-0.34036 0.08801,-0.22156 0.120434,-0.25644 0.155873,-0.16768 0.129457,0.32423 -0.229936,1.2334 -0.565917,1.43164 -0.521536,0.30771 -0.896267,2.02008 -0.633291,2.89389 0.04802,0.15957 0.188184,0.42753 0.311468,0.59548 0.815277,1.11063 2.359063,1.21508 4.29228,0.29039 0.720987,-0.34485 2.043418,-1.10078 2.324561,-1.32876 l 0.153523,-0.12449 -0.184857,-0.0955 c -0.335567,-0.17338 -0.986931,-0.36078 -1.908216,-0.549 -0.586505,-0.11982 -0.934746,-0.221 -0.982199,-0.28538 -0.08547,-0.11595 -0.04368,-0.47778 0.08461,-0.73253 0.127973,-0.25412 0.507611,-0.50774 1.490657,-0.99584 0.481288,-0.23898 0.882005,-0.44143 0.89048,-0.44991 0.0085,-0.008 -0.03985,-0.19297 -0.107391,-0.40998 -0.157887,-0.50729 -0.155716,-0.97899 0.0067,-1.46119 0.358201,-1.063305 1.003325,-1.401915 1.520288,-0.797955 0.317629,0.371065 0.442279,0.833175 0.401419,1.488115 -0.02929,0.46947 -0.0657,0.59956 -0.291579,1.04166 -0.296462,0.58026 -0.302723,0.56395 0.304626,0.79372 0.515083,0.19487 1.360244,0.14623 1.862826,-0.10722 0.483612,-0.24388 0.52224,-0.32227 0.342754,-0.69562 -0.07939,-0.16513 -0.226568,-0.42961 -0.327074,-0.58773 -0.123186,-0.1938 -0.182733,-0.36885 -0.182733,-0.53717 0,-0.26269 0.167905,-0.83603 0.244836,-0.83603 0.108916,0 0.390914,0.37971 0.581762,0.78335 0.193844,0.40996 0.207417,0.48183 0.207417,1.09807 0,0.62106 -0.01218,0.68414 -0.209472,1.08483 -0.241609,0.49069 -0.535081,0.74016 -1.015557,0.86331 -0.3417,0.0876 -0.304382,0.0233 -0.505695,0.8705 -0.04505,0.18957 -0.08297,0.58659 -0.08427,0.88226 -0.0022,0.49072 0.01411,0.56425 0.186604,0.84325 0.138375,0.22381 0.280993,0.35411 0.532672,0.48665 0.314942,0.16585 0.385669,0.17873 0.845047,0.15386 0.384535,-0.0208 0.596244,-0.0708 0.90868,-0.21445 1.199708,-0.55169 3.112599,-2.10861 3.058278,-2.48916 -0.01784,-0.12499 -0.06455,-0.13429 -0.833579,-0.16589 -0.847378,-0.0348 -0.965319,-0.0674 -1.216465,-0.3359 -0.393177,-0.42036 0.006,-1.69132 0.633676,-2.01794 0.276765,-0.14399 0.737277,-0.11234 1.004179,0.069 0.24753,0.16821 0.562291,0.5845 0.710957,0.94031 0.05024,0.12025 0.127754,0.21864 0.172242,0.21864 0.175475,0 0.651185,-0.36763 0.752794,-0.58176 0.116625,-0.24576 0.119708,-0.20252 -0.240142,-3.366295 -0.08429,-0.74105 -0.210945,-1.88046 -0.281465,-2.53203 -0.07051,-0.65157 -0.144599,-1.24995 -0.164622,-1.32973 -0.02185,-0.0871 0.0331,-0.32222 0.137462,-0.58823 0.136634,-0.34825 0.189538,-0.42584 0.247067,-0.36229 0.114813,0.12685 0.835083,1.87149 0.880692,2.13324 0.02509,0.14401 0.01634,0.235 -0.02262,0.235 -0.03496,0 -0.152176,-0.10575 -0.260478,-0.235 l -0.19692,-0.23501 0.03452,0.31334 c 0.01898,0.17234 0.131646,1.11705 0.250363,2.09936 0.345236,2.856685 0.348676,3.312305 0.03145,4.160165 -0.18356,0.49061 -0.358998,0.72247 -0.787895,1.04125 -0.360714,0.26811 -0.386314,0.30517 -0.519451,0.75201 -0.178415,0.59879 -0.415887,0.974 -1.006091,1.58965 -0.847974,0.88453 -1.925624,1.61342 -2.750743,1.86053 -1.042099,0.31208 -1.885455,-0.0309 -2.320002,-0.94348 -0.150356,-0.31577 -0.163585,-0.40774 -0.157742,-1.09668 0.006,-0.71264 0.110049,-1.25224 0.371426,-1.92702 0.03644,-0.0941 0.0037,-0.10981 -0.230563,-0.11065 -0.691284,-0.002 -1.341329,-0.28291 -1.793915,-0.77391 l -0.260312,-0.28241 -0.642094,0.33619 c -0.605738,0.31716 -0.631601,0.33859 -0.456761,0.37852 1.26931,0.28993 1.545021,0.44709 1.662325,0.94753 0.06593,0.28126 -0.02405,0.8173 -0.193059,1.15017 -0.396234,0.7804 -2.54196,2.09507 -4.103974,2.51446 -0.622404,0.16712 -1.479749,0.20468 -1.909842,0.0837 z m 12.893007,-5.09467 c 0.05916,-0.0375 0.04341,-0.0821 -0.06267,-0.17726 -0.389529,-0.34947 -0.652833,-0.418 -0.911073,-0.23712 -0.176071,0.12333 -0.175664,0.19121 0.0017,0.28954 0.118968,0.0659 0.276257,0.0976 0.830345,0.16713 0.03447,0.004 0.09822,-0.0147 0.141673,-0.0423 z m -6.821961,-1.54275 c 0.288136,-0.149 0.582049,-0.52391 0.534665,-0.68201 -0.07898,-0.26352 -0.311128,-0.62758 -0.479663,-0.75221 -0.142967,-0.10572 -0.19616,-0.11442 -0.329149,-0.0538 -0.239707,0.10922 -0.421382,0.43957 -0.382914,0.69628 0.03898,0.26015 0.335397,0.88257 0.420303,0.88257 0.03364,0 0.140184,-0.0409 0.236758,-0.0908 z m 22.785858,6.62947 c -0.396304,-0.10809 -0.451702,-0.50214 -0.153623,-1.09263 l 0.191054,-0.37847 -0.156017,-0.12272 c -0.287306,-0.226 -0.260008,-0.46145 0.101854,-0.87855 0.360808,-0.41589 0.698279,-0.46832 0.663079,-0.10301 -0.01859,0.19293 -0.03194,0.20304 -0.243952,0.18475 -0.151493,-0.0131 -0.252519,0.0147 -0.311302,0.0855 -0.07597,0.0915 -0.06849,0.11987 0.05888,0.22302 0.231839,0.18773 0.48588,0.14003 0.805705,-0.15127 0.125592,-0.1144 0.141002,-0.11662 0.141002,-0.0204 0,0.20089 -0.18685,0.47099 -0.454422,0.65688 -0.519414,0.36085 -0.847692,0.81163 -0.759136,1.04241 0.06827,0.1779 1.184342,0.1335 1.751239,-0.0697 0.230548,-0.0826 -0.229677,0.34092 -0.517402,0.47616 -0.277204,0.13031 -0.886026,0.21096 -1.116962,0.14797 z m -6.030051,-0.15295 c -0.288195,-0.0842 -0.619488,-0.45383 -0.77385,-0.86341 -0.11126,-0.2952 -0.127704,-0.44356 -0.101566,-0.91625 0.01716,-0.3102 0.0506,-0.62469 0.07432,-0.69886 0.03647,-0.11406 -0.109994,-0.0582 -0.949596,0.36247 -0.772428,0.38698 -1.152639,0.53725 -1.713394,0.67719 -0.803656,0.20056 -1.932794,0.38211 -2.336267,0.37564 -0.303399,-0.005 -0.348099,0.0221 0.675576,-0.40722 1.075137,-0.45088 3.273454,-1.53824 4.120318,-2.03804 1.570719,-0.92701 2.574103,-1.67294 2.541735,-1.88956 -0.03722,-0.24908 -0.310299,-0.37246 -0.967074,-0.43694 -0.338286,-0.0332 -0.693003,-0.1007 -0.788258,-0.14996 -0.74842,-0.38702 -0.243676,-2.11323 0.66083,-2.26002 0.870985,-0.14134 1.69398,1.37454 1.479807,2.72566 -0.138433,0.87335 -0.468315,1.30743 -1.642592,2.16145 -0.561314,0.40822 -0.622008,0.47303 -0.741878,0.79206 -0.0718,0.1911 -0.145859,0.54692 -0.164559,0.7907 -0.05326,0.69415 0.168513,1.02945 0.68089,1.02945 0.44311,0 0.865577,-0.33023 1.545514,-1.20808 0.988738,-1.27654 1.737026,-1.82108 3.552751,-2.58536 0.310204,-0.13057 0.587026,-0.2573 0.615157,-0.28163 0.06639,-0.0574 -0.490042,-0.46522 -0.855011,-0.62666 l -0.283621,-0.12546 -0.326241,0.12859 -0.326248,0.12859 0.03526,-0.17631 c 0.0194,-0.097 0.09678,-0.34074 0.171973,-0.54171 0.126381,-0.33777 0.161914,-0.37693 0.470126,-0.51803 1.037148,-0.47482 2.895468,-0.41323 3.970643,0.13161 0.367514,0.18623 0.386916,0.26141 0.187232,0.72558 -0.136616,0.31758 -0.259544,0.41835 -1.056294,0.86585 l -0.342403,0.19231 0.367834,0.1684 c 0.518975,0.23759 1.109235,0.27487 1.46649,0.0926 0.41778,-0.21314 0.526696,-0.44099 0.481707,-1.0077 -0.09498,-1.19646 -0.639222,-6.226555 -0.763065,-7.052545 l -0.103722,-0.69178 0.17515,-0.39029 c 0.212888,-0.47438 0.185954,-0.50145 0.713533,0.71705 0.3387,0.78226 0.470721,1.27614 0.341131,1.27614 -0.02334,0 -0.123336,-0.0917 -0.222213,-0.20367 -0.136133,-0.15423 -0.172712,-0.17325 -0.150697,-0.0783 0.01599,0.0689 0.04544,0.28044 0.06544,0.47001 0.02,0.18956 0.137938,1.20478 0.262095,2.25603 0.241771,2.047155 0.296706,3.425675 0.163148,4.094315 -0.159558,0.79885 -0.582601,1.42371 -1.114254,1.64585 -0.115722,0.0483 -0.388358,0.0879 -0.605858,0.0879 -0.319981,0 -0.478831,-0.0401 -0.832357,-0.21011 -0.240299,-0.11555 -0.563808,-0.30715 -0.71891,-0.42576 -0.155102,-0.1186 -0.31409,-0.23526 -0.353307,-0.25924 -0.1075,-0.0657 -3.063023,1.39453 -3.516028,1.73719 -0.229188,0.17337 -0.659695,0.625 -1.03921,1.09021 -0.949126,1.16345 -1.450467,1.48943 -2.030186,1.32006 z m 7.136109,-5.48176 c 0.252287,-0.12705 0.421188,-0.24757 0.390112,-0.27837 -0.133476,-0.13225 -1.527504,-0.25347 -1.527504,-0.13282 0,0.0578 0.597128,0.63525 0.656888,0.63525 0.01957,0 0.235799,-0.10083 0.480504,-0.22406 z m -6.208716,-1.45909 c -0.08095,-0.15125 -0.335472,-0.31629 -0.555699,-0.36033 -0.122684,-0.0245 -0.220182,0.004 -0.328741,0.0956 l -0.154326,0.1305 0.147946,0.12533 c 0.114469,0.097 0.239039,0.12534 0.550547,0.12534 0.372954,0 0.398008,-0.009 0.340273,-0.11646 z m 27.75699,6.92242 c 0,-0.0136 0.14805,-0.11872 0.32901,-0.2335 0.180955,-0.11479 0.614395,-0.48138 0.963195,-0.81465 0.84236,-0.80483 1.08736,-0.93108 1.51467,-0.78048 0.28527,0.10053 0.44312,0.0464 0.60852,-0.20885 0.14774,-0.22798 0.23506,-0.25016 0.20761,-0.0528 -0.0158,0.11385 0.0106,0.14101 0.13706,0.14101 0.11598,0 0.15398,-0.0311 0.14632,-0.11957 -0.0152,-0.176 0.0943,-0.4267 0.1669,-0.38185 0.11863,0.0733 0.0709,0.56813 -0.0723,0.75025 -0.11487,0.14603 -0.16787,0.16642 -0.35406,0.1362 -0.16092,-0.0261 -0.26617,-0.002 -0.397,0.0912 -0.19405,0.13818 -0.25664,0.14584 -0.68583,0.0839 -0.36797,-0.0531 -0.55953,0.0439 -1.19784,0.60634 -0.52499,0.46262 -1.366255,0.94457 -1.366255,0.78272 z m 7.708125,-0.41854 c 0,-0.0353 0.0445,-0.15028 0.0989,-0.25545 0.072,-0.13929 0.22096,-0.24763 0.54834,-0.39887 0.57651,-0.26633 2.18794,-0.91346 2.21278,-0.88862 0.0104,0.0104 -0.0296,0.11099 -0.0888,0.22348 -0.0945,0.1792 -0.2553,0.27057 -1.29848,0.73766 -1.49584,0.66976 -1.47269,0.66061 -1.47269,0.5818 z m -26.699537,-0.15445 c 0.04998,-0.0676 0.152853,-0.19339 0.228618,-0.27956 0.255057,-0.29008 0.463859,-0.64318 0.463859,-0.78441 0,-0.22331 -0.154733,-0.31218 -0.408148,-0.2344 l -0.215144,0.066 0.08589,-0.1661 c 0.197316,-0.38156 0.523901,-0.52397 0.729689,-0.31819 0.2455,0.24551 0.08758,0.82028 -0.362137,1.31807 -0.26447,0.29274 -0.67701,0.60734 -0.522629,0.39856 z m 3.652486,-0.55434 c -0.181516,-0.14642 -0.35827,-0.29446 -0.392775,-0.32897 -0.04188,-0.0419 0.02341,-0.19679 0.196325,-0.46584 0.142487,-0.2217 0.267265,-0.41222 0.277279,-0.42338 0.04562,-0.0508 0.90722,0.63936 0.90722,0.72671 0,0.10367 -0.507112,0.76633 -0.583122,0.76199 -0.04119,-0.002 -0.223404,-0.12408 -0.404927,-0.27051 z m 20.781481,-0.59971 c -0.47066,-0.25683 -0.65039,-0.85449 -0.54737,-1.82021 0.0661,-0.61984 0.26289,-1.32736 0.40104,-1.44202 0.14618,-0.12132 0.16675,-0.0459 0.0656,0.2406 -0.0503,0.14272 -0.12204,0.4822 -0.15932,0.7544 -0.0866,0.63244 -0.0161,0.97886 0.24715,1.21469 0.16308,0.14611 0.24772,0.17234 0.55601,0.17234 0.68297,0 1.41922,-0.31218 2.30049,-0.97545 1.04445,-0.78606 1.59528,-1.42574 1.59528,-1.85257 0,-0.41776 -0.43111,-1.76511 -0.87249,-2.72673 l -0.31854,-0.694015 0.0902,-0.51683 c 0.0496,-0.28426 0.10326,-0.52987 0.11918,-0.54579 0.0846,-0.0846 0.67739,0.9609 0.97888,1.726625 0.19069,0.48435 0.40442,1.34353 0.59422,2.38872 0.19626,1.0808 0.3105,1.46332 0.52134,1.74568 0.22124,0.29626 0.51483,0.40279 1.02987,0.37369 0.52424,-0.0296 0.59199,-0.085 0.48826,-0.39931 -0.18651,-0.56515 0.11872,-1.59736 0.67203,-2.2726 0.44689,-0.54537 0.93596,-0.67521 1.22947,-0.3264 0.24972,0.29679 0.32434,0.60047 0.32374,1.31762 -6.3e-4,0.58682 -0.0193,0.69817 -0.1739,1.02932 -0.11866,0.2542 -0.15303,0.39163 -0.10894,0.4357 0.097,0.0969 0.8014,0.1235 1.28388,0.0484 0.55095,-0.0858 1.35111,-0.34155 1.85806,-0.59396 0.4958,-0.24685 0.54783,-0.39865 0.20856,-0.60833 -0.18661,-0.11533 -0.36105,-0.15014 -0.92871,-0.1853 -1.08265,-0.0671 -1.35505,-0.25979 -1.35505,-0.9587 0,-0.60156 0.56424,-1.46751 1.03284,-1.58512 0.43329,-0.10875 1.07468,0.28562 1.4114,0.86781 0.48266,0.83455 0.61323,1.9583 0.30453,2.62096 -0.23277,0.49968 -0.51288,0.74919 -1.14678,1.02151 -0.88327,0.37945 -1.44871,0.49719 -2.22521,0.46337 -0.52731,-0.023 -0.74587,-0.063 -1.07763,-0.19711 l -0.41615,-0.1683 -0.42822,0.21937 c -0.89962,0.46085 -1.74212,0.43632 -2.23901,-0.0652 -0.25053,-0.25286 -0.34729,-0.46442 -0.51064,-1.11658 -0.10481,-0.41845 -0.15499,-0.53655 -0.18886,-0.44451 -0.17772,0.48291 -0.36067,0.74676 -0.87212,1.25778 -0.63538,0.63484 -1.40639,1.17468 -2.10749,1.47557 -0.60889,0.26132 -1.28653,0.3114 -1.63568,0.12087 z m 8.20553,-2.61473 c 0.32674,-0.20201 0.64013,-0.54328 0.64013,-0.69708 0,-0.18965 -0.1607,-0.53229 -0.31525,-0.67216 -0.0792,-0.0716 -0.17068,-0.094 -0.27637,-0.0675 -0.18764,0.0471 -0.55746,0.40233 -0.69427,0.66688 -0.0887,0.17157 -0.0881,0.20792 0.007,0.40805 0.0876,0.18462 0.35588,0.46696 0.44368,0.46696 0.0138,0 0.10165,-0.0473 0.19523,-0.10518 z m 3.64818,-1.99379 c 0,-0.0515 -0.11703,-0.17839 -0.26007,-0.282 -0.31651,-0.22928 -0.66331,-0.25456 -0.83838,-0.0611 -0.10605,0.11718 -0.10716,0.13532 -0.014,0.22851 0.19042,0.19042 1.11242,0.2854 1.11242,0.1146 z m -29.772811,3.88163 c -0.388877,-0.11979 -0.834927,-0.52297 -0.970075,-0.87684 -0.175269,-0.45895 -0.06577,-1.47771 0.227019,-2.11217 0.09567,-0.20732 0.212606,-0.22932 0.166571,-0.0313 -0.01804,0.0776 -0.06793,0.2961 -0.110866,0.48567 -0.334482,1.47658 1.120841,2.2141 2.920897,1.48022 1.15618,-0.47136 1.90708,-1.14201 1.90908,-1.70504 0.001,-0.33452 -0.22227,-2.7637 -0.44492,-4.836845 -0.17641,-1.64239 -0.17968,-1.72598 -0.0841,-2.14636 0.0547,-0.24058 0.12434,-0.43742 0.15472,-0.43742 0.17531,0 0.50742,2.53104 0.74827,5.702755 0.0904,1.19103 0.23339,2.41709 0.31568,2.70752 0.0951,0.33578 0.31998,0.48852 0.71917,0.48852 0.36196,0 0.58897,-0.12156 1.09698,-0.58741 l 0.282,-0.2586 0.0338,0.2938 c 0.0477,0.41517 0.19186,0.55221 0.58074,0.55221 0.30158,0 0.32814,-0.015 0.72244,-0.40733 0.22514,-0.22404 0.43238,-0.40734 0.46054,-0.40734 0.0282,0 0.0512,0.10055 0.0512,0.22345 0,0.29376 0.0841,0.43924 0.29667,0.51335 0.25214,0.0879 0.39636,0.009 0.69664,-0.37999 0.33904,-0.43945 0.42382,-0.47424 0.47614,-0.19534 0.0831,0.44315 0.49997,0.50895 1.1984,0.18921 l 0.35762,-0.16372 -0.0352,-0.34104 c -0.0687,-0.66609 0.22808,-1.60225 0.63265,-1.99529 0.472205,-0.45873 0.728495,-0.42253 1.014095,0.14323 0.2311,0.45782 0.47039,0.62688 0.88777,0.62722 0.2464,1.8e-4 0.34174,-0.0391 0.61,-0.25109 0.17487,-0.13823 0.36395,-0.32154 0.42017,-0.40734 0.13945,-0.21283 0.27581,-0.20119 0.27581,0.0235 0,0.23861 0.20187,0.48396 0.47136,0.5729 0.35846,0.1183 0.61963,-0.0557 0.94136,-0.62712 0.14555,-0.2585 0.28908,-0.46349 0.31897,-0.45553 0.0299,0.008 0.0684,0.174 0.0857,0.36897 0.029,0.3279 0.0477,0.36326 0.2497,0.4712 0.23091,0.12341 0.53423,0.1545 0.59221,0.0607 0.019,-0.0308 -0.008,-0.15765 -0.0598,-0.28188 -0.0861,-0.20617 -0.0842,-0.25606 0.0224,-0.57175 0.0642,-0.19024 0.133,-0.36211 0.15284,-0.38195 0.0198,-0.0198 0.0869,0.0582 0.14905,0.17342 0.24714,0.45823 0.0857,1.43708 -0.30573,1.85373 -0.22693,0.24157 -0.6928,0.18462 -1.03444,-0.12646 l -0.13975,-0.12725 -0.3119,0.29175 c -0.28531,0.26686 -0.33868,0.29175 -0.62575,0.29175 -0.26185,0 -0.35063,-0.0323 -0.53592,-0.19498 -0.12214,-0.10725 -0.23898,-0.26235 -0.25964,-0.34468 -0.0502,-0.19982 -0.0852,-0.18673 -0.30599,0.11429 -0.23678,0.32282 -0.5444,0.48804 -0.90868,0.48804 -0.44574,0 -0.68651,-0.16524 -0.94287,-0.64714 -0.30628,-0.57571 -0.3207,-0.58619 -0.583465,-0.42379 -0.32337,0.19985 -0.48746,0.58086 -0.41438,0.96216 0.088,0.45929 0.15883,0.55759 0.36085,0.50101 0.335195,-0.0939 0.808945,-0.0548 0.995635,0.0822 0.29505,0.21648 0.4058,0.50081 0.38195,0.98054 -0.0487,0.98071 -0.7078,1.11265 -1.451695,0.29062 l -0.33512,-0.37031 -0.52006,0.2515 c -0.28604,0.13832 -0.61715,0.26971 -0.7358,0.29196 -0.2897,0.0543 -0.60915,-0.10388 -0.77408,-0.38342 -0.0712,-0.12064 -0.13805,-0.21935 -0.14861,-0.21935 -0.0105,0 -0.0935,0.12675 -0.18425,0.28166 -0.28863,0.49252 -0.77363,0.61856 -1.10502,0.28717 -0.10075,-0.10075 -0.18318,-0.24175 -0.18318,-0.31334 0,-0.19645 -0.0783,-0.15667 -0.23635,0.12009 -0.2292,0.40136 -0.74676,0.59018 -1.15275,0.42055 -0.20467,-0.0855 -0.2616,-0.16813 -0.39217,-0.56916 -0.0333,-0.10236 -0.082,-0.0764 -0.37306,0.19888 -0.48522,0.4589 -0.92327,0.54634 -1.43278,0.28599 -0.22749,-0.11624 -0.40596,-0.48123 -0.49813,-1.01871 l -0.0752,-0.43856 -0.17222,0.30155 c -0.37445,0.65561 -1.50198,1.417 -2.46427,1.66402 -0.4598,0.11803 -1.283303,0.11731 -1.66889,-0.002 z m 13.541901,-1.12011 c 0,-0.14679 -0.31366,-0.34921 -0.54113,-0.34921 -0.282675,0 -0.265635,0.0854 0.0555,0.27785 0.29757,0.17835 0.48568,0.20599 0.48568,0.0714 z m -35.606412,-0.14544 c 0.01107,-0.43951 -0.02467,-1.25032 -0.07941,-1.80179 -0.05474,-0.55148 -0.140996,-1.41159 -0.191675,-1.91136 -0.05067,-0.49978 -0.176867,-1.811105 -0.280431,-2.914055 -0.103559,-1.10295 -0.216711,-2.10733 -0.251454,-2.23197 -0.09734,-0.34919 -0.07777,-0.50753 0.115246,-0.93273 l 0.178408,-0.39303 0.417516,0.98813 c 0.229633,0.54346 0.43314,1.10425 0.452241,1.24619 l 0.03473,0.25806 -0.223315,-0.24544 -0.22331,-0.24545 v 0.21411 c 0,0.11777 0.06973,0.84862 0.155202,1.62414 0.473279,4.293955 0.521019,5.326685 0.288221,6.235415 -0.145627,0.56849 -0.282781,0.90858 -0.366492,0.9088 -0.02497,6e-5 -0.03633,-0.3595 -0.02527,-0.79902 z m 18.424865,0.60922 c -0.410034,-0.2166 -0.703368,-0.76905 -0.801982,-1.51041 -0.0338,-0.25406 -0.09107,-1.19514 -0.127271,-2.09129 -0.109631,-2.713505 -0.285827,-4.281355 -0.604786,-5.381545 -0.09804,-0.33816 -0.148297,-0.63584 -0.128237,-0.75948 0.04211,-0.25945 0.293196,-0.84641 0.362081,-0.84641 0.07745,0 0.287099,0.72325 0.431779,1.4896 0.210764,1.11635 0.37103,2.55407 0.438899,3.937225 0.149406,3.04493 0.20382,3.50833 0.453776,3.86459 0.257232,0.36662 0.831693,0.47396 1.23165,0.23013 0.191355,-0.11667 0.207887,-0.14964 0.175394,-0.34985 -0.01973,-0.12158 -0.120798,-0.3534 -0.224601,-0.51516 l -0.188729,-0.29411 0.09265,-0.39714 c 0.140783,-0.60348 0.170137,-0.63106 0.366462,-0.34431 0.284235,0.41514 0.437018,1.03 0.391052,1.57375 -0.02176,0.25741 -0.09139,0.58518 -0.154739,0.72837 -0.122302,0.27648 -0.487241,0.63755 -0.742467,0.73458 -0.251266,0.0955 -0.723422,0.0622 -0.970928,-0.0686 z m -16.568401,-0.45567 c -0.181642,-0.1565 -0.184493,-0.16874 -0.180501,-0.77517 0.0046,-0.69358 0.14552,-1.13133 0.570689,-1.77238 0.26702,-0.4026 0.292463,-0.33281 -0.433741,-1.18959 l -0.485674,-0.573 v -0.4363 c 0,-0.542225 0.02546,-0.546655 0.752011,-0.130675 0.533689,0.305575 0.65544,0.460295 0.391672,0.497765 -0.206828,0.0294 -0.176741,0.0951 0.180602,0.39423 l 0.321597,0.26926 0.149575,-0.18509 c 0.08227,-0.1018 0.394649,-0.55875 0.694175,-1.015445 0.299526,-0.45669 0.582903,-0.83034 0.629728,-0.83034 0.05106,0 0.07278,0.0439 0.05425,0.10967 -0.01698,0.0603 -0.05072,0.20837 -0.07498,0.329 -0.07112,0.35366 -0.296938,0.809695 -0.676165,1.365445 -0.19494,0.28569 -0.354435,0.53284 -0.354435,0.54923 0,0.0164 0.123693,0.18165 0.274866,0.36726 0.349222,0.42875 0.50569,0.88075 0.454785,1.31378 -0.06618,0.56292 -0.217882,0.96286 -0.451181,1.18944 -0.321046,0.31179 -0.916507,0.60801 -1.302252,0.64783 -0.290476,0.03 -0.352793,0.0149 -0.515021,-0.12492 z m 1.134246,-1.05309 c 0.464756,-0.17388 0.780613,-0.44849 0.732697,-0.63701 -0.04189,-0.16485 -0.792707,-0.92325 -0.914013,-0.92325 -0.09663,0 -0.63607,0.92281 -0.740662,1.26703 -0.05499,0.18098 -0.05301,0.25444 0.0089,0.329 0.112306,0.13533 0.495988,0.1203 0.91311,-0.0358 z m 38.611342,-0.3876 c -0.0273,-0.86485 -0.13109,-2.06185 -0.32712,-3.773375 -0.1579,-1.37869 -0.30149,-2.78871 -0.31909,-3.13338 -0.0176,-0.34467 -0.0719,-0.73221 -0.12064,-0.8612 -0.0803,-0.21249 -0.0768,-0.26547 0.0376,-0.564 0.0695,-0.18122 0.16262,-0.39449 0.20702,-0.47393 l 0.0807,-0.14443 0.0805,0.17577 c 0.23742,0.51823 0.69061,1.72082 0.72906,1.93463 l 0.0443,0.2465 -0.20434,-0.188 -0.20433,-0.18801 0.0402,0.69557 c 0.0221,0.38256 0.0815,1.03117 0.13186,1.44136 0.30456,2.478595 0.39981,4.059205 0.28865,4.789645 -0.0738,0.48467 -0.29238,1.22788 -0.37646,1.27985 -0.0264,0.0163 -0.066,-0.54033 -0.088,-1.237 z m -18.867295,-0.84874 c -0.0177,-0.0286 0.15689,-0.11762 0.38798,-0.19773 0.52345,-0.18145 0.8429,-0.3384 0.94903,-0.46628 0.0723,-0.0871 0.0499,-0.0986 -0.1922,-0.0988 -0.16249,-1.3e-4 -0.35689,-0.0508 -0.47767,-0.12442 -0.27411,-0.16712 -0.27001,-0.41525 0.0163,-0.98755 0.20324,-0.40625 0.68782,-0.955835 0.84278,-0.955835 0.0905,0 0.008,0.562295 -0.10977,0.750735 -0.0586,0.0934 -0.10762,0.12467 -0.12306,0.0783 -0.0141,-0.0424 -0.0607,-0.077 -0.10354,-0.077 -0.0953,0 -0.35038,0.2631 -0.35038,0.36143 0,0.0793 0.38157,0.20169 0.63037,0.20223 0.29433,6.4e-4 0.39503,0.13181 0.347,0.45203 -0.0621,0.41396 -0.3581,0.84537 -0.68048,0.99171 -0.27434,0.12453 -1.07249,0.17455 -1.13636,0.0712 z m 8.34917,-0.65604 c 0.0372,-0.0448 0.32264,-0.21593 0.63434,-0.38028 0.31172,-0.16435 0.56676,-0.32307 0.56676,-0.35271 0,-0.0821 -0.65828,-0.14649 -1.03982,-0.10164 -0.40555,0.0477 -0.42754,-0.008 -0.15283,-0.38728 0.27044,-0.37335 0.37667,-0.41198 1.00926,-0.36707 0.61985,0.044 0.87273,0.11972 0.87273,0.26135 0,0.17966 -0.25608,0.60311 -0.53096,0.87799 -0.20489,0.20488 -0.37489,0.30354 -0.69163,0.40137 -0.49448,0.15273 -0.77115,0.17273 -0.66785,0.0483 z m -3.4983,-1.02973 c -0.29963,-0.15188 -0.36507,-0.36639 -0.22426,-0.73512 0.15368,-0.402385 0.35716,-0.622505 0.84103,-0.909775 0.58921,-0.34982 2.55184,-1.26394 4.20796,-1.95992 2.17156,-0.91258 6.349465,-2.49793 6.842985,-2.59663 l 0.19433,-0.0389 -0.11894,0.20409 c -0.19043,0.32679 -0.40963,0.47095 -1.0998,0.72334 -4.382045,1.6025 -10.581305,4.35145 -10.581305,4.692095 0,0.0308 0.1004,0.16721 0.22311,0.30303 0.1227,0.13583 0.21214,0.28025 0.19875,0.32094 -0.0389,0.11808 -0.24732,0.11671 -0.48386,-0.003 z M 58.18904,100.7268 c 0.07391,-0.0592 0.48961,-0.35846 0.923783,-0.66509 0.769263,-0.543265 1.542544,-1.189135 1.542544,-1.288375 0,-0.0271 -0.09812,-0.11642 -0.218046,-0.19841 -0.261167,-0.17857 -0.375617,-0.42383 -0.322255,-0.69061 0.134177,-0.6709 0.869813,-1.06696 1.097102,-0.59067 0.07124,0.14928 0.07428,0.25527 0.01618,0.56401 l -0.07154,0.38018 0.200085,0.16496 c 0.195918,0.16152 0.198474,0.17033 0.122766,0.42301 -0.04252,0.14192 -0.08867,0.25805 -0.10255,0.25805 -0.01388,0 -0.123223,-0.0578 -0.242981,-0.12848 l -0.217751,-0.12847 -0.187664,0.26947 c -0.208464,0.29935 -0.687438,0.7727 -0.993287,0.981625 -0.1916,0.13089 -1.558431,0.76275 -1.640707,0.75846 -0.02203,-0.001 0.02041,-0.0505 0.09432,-0.10966 z m 2.716997,-2.734505 c 0,-0.2473 -0.06682,-0.3498 -0.22801,-0.3498 -0.234057,0 -0.258021,0.17628 -0.04737,0.34852 0.230435,0.18843 0.27538,0.18864 0.27538,10e-4 z m 51.324763,2.518045 c -0.1551,-0.10574 -0.37354,-0.2598 -0.48542,-0.34237 l -0.20342,-0.1501 0.13327,-0.263335 c 0.0733,-0.14484 0.18778,-0.34072 0.25441,-0.4353 l 0.12115,-0.17196 0.37076,0.25178 c 0.52642,0.35748 0.52249,0.3573 0.7125,0.0331 0.0921,-0.15708 0.1941,-0.28561 0.22676,-0.28561 0.12961,0 0.93802,0.56934 0.93802,0.66061 0,0.10051 -0.41054,0.780745 -0.4712,0.780745 -0.0187,0 -0.22216,-0.12617 -0.45205,-0.28039 l -0.41796,-0.2804 -0.16499,0.28252 c -0.23962,0.41028 -0.24935,0.41376 -0.56183,0.20073 z m -36.780663,-0.32412 c 0.01436,-0.0141 0.350419,-0.242985 0.746791,-0.508635 0.864988,-0.5797 1.537894,-1.11217 1.635141,-1.29389 0.05873,-0.10974 0.05115,-0.14408 -0.04354,-0.19707 -0.434067,-0.24292 -0.521557,-0.64633 -0.235755,-1.0871 0.27256,-0.42035 0.651856,-0.57375 0.872677,-0.35293 0.08932,0.0893 0.100726,0.18527 0.06976,0.58688 -0.03489,0.45253 -0.02818,0.4884 0.117031,0.62482 0.169829,0.15954 0.190215,0.28829 0.08292,0.52377 l -0.07113,0.15613 -0.226537,-0.15499 -0.226537,-0.15498 -0.09314,0.14281 c -0.166783,0.25573 -0.77783,0.87351 -1.049268,1.06084 -0.300648,0.20748 -1.724361,0.797705 -1.578415,0.654345 z m 2.74046,-2.678405 c -0.02364,-0.23751 -0.189193,-0.36608 -0.344916,-0.26786 -0.178202,0.11241 -0.163293,0.20508 0.05434,0.33777 0.278789,0.16997 0.313607,0.16159 0.290577,-0.0699 z m -28.664771,1.9702 c -0.07755,-0.66645 -0.272957,-1.12282 -0.674167,-1.57456 -0.160125,-0.1803 -0.291136,-0.35086 -0.291136,-0.37903 0,-0.10371 0.13897,-0.44594 0.181085,-0.44594 0.101784,0 0.575041,0.55765 0.717982,0.84602 0.206459,0.4165 0.317744,1.01753 0.271076,1.46403 -0.06945,0.664505 -0.134613,0.692965 -0.20484,0.0895 z m 49.368089,0.0718 c -0.18243,-0.12285 -0.34671,-0.2625 -0.36505,-0.31032 -0.0405,-0.1056 0.28335,-0.71977 0.37935,-0.71939 0.0376,1.2e-4 0.21935,0.11473 0.40388,0.25462 0.18452,0.1399 0.34255,0.24553 0.35117,0.23474 0.009,-0.0108 0.093,-0.15357 0.18746,-0.31729 0.0945,-0.16372 0.193775,-0.29768 0.220635,-0.29768 0.10175,0 0.75394,0.52626 0.75394,0.60837 0,0.13216 -0.22217,0.53727 -0.36598,0.66732 -0.12545,0.11346 -0.13297,0.11324 -0.30434,-0.009 -0.0966,-0.0689 -0.229425,-0.18468 -0.295085,-0.25734 -0.16345,-0.18086 -0.20012,-0.16948 -0.38196,0.11857 -0.087,0.13787 -0.17942,0.25067 -0.20529,0.25067 -0.0259,0 -0.19631,-0.10051 -0.37873,-0.22336 z m 4.375415,-0.40455 c 0.32744,-0.17786 0.66585,-0.36928 0.75201,-0.42539 l 0.15667,-0.10201 -0.188,-0.0416 c -0.1034,-0.0229 -0.43476,-0.0449 -0.73634,-0.049 -0.30159,-0.004 -0.54764,-0.0286 -0.54679,-0.0544 8.8e-4,-0.0259 0.10151,-0.18327 0.22368,-0.34982 l 0.22213,-0.30282 0.7456,0.0208 c 0.90883,0.0254 0.99402,0.0732 0.81811,0.45949 -0.0628,0.13787 -0.23129,0.3825 -0.37445,0.54362 -0.28071,0.31595 -0.72229,0.50681 -1.35462,0.58552 l -0.31334,0.039 z m -29.704441,0.16246 c 0,-0.0147 0.31018,-0.19099 0.689294,-0.39167 0.379107,-0.20069 0.689312,-0.38476 0.689343,-0.40905 0,-0.0761 -0.449232,-0.14132 -0.98217,-0.14261 l -0.512214,-0.001 0.136208,-0.24261 c 0.283559,-0.50509 0.348714,-0.54131 0.963565,-0.53569 0.704885,0.006 1.10879,0.1059 1.133594,0.27912 0.029,0.20249 -0.572525,1.00836 -0.863447,1.15677 -0.346426,0.17674 -1.254173,0.38444 -1.254173,0.28697 z m -17.56259,-0.32561 c -0.232654,-0.15407 -0.423802,-0.31406 -0.424776,-0.35554 -0.0029,-0.12411 0.403745,-0.85765 0.47578,-0.85822 0.03667,-3.2e-4 0.253809,0.12498 0.482532,0.27837 l 0.415859,0.27891 0.20961,-0.34271 0.209611,-0.34271 0.451539,0.28889 c 0.332971,0.21303 0.451545,0.32463 0.451545,0.42498 0,0.12891 -0.400747,0.79243 -0.478605,0.79243 -0.02013,0 -0.220101,-0.12828 -0.444389,-0.28507 -0.224287,-0.15679 -0.415179,-0.27664 -0.424203,-0.26634 -0.009,0.0103 -0.09078,0.16678 -0.181673,0.34774 -0.0909,0.18095 -0.200042,0.32684 -0.242546,0.32419 -0.0425,-0.003 -0.267631,-0.13086 -0.500284,-0.28492 z m 59.817381,-0.0852 c -0.21125,-0.13727 -0.40187,-0.27836 -0.4236,-0.31353 -0.0375,-0.0607 0.18636,-0.52351 0.37582,-0.77685 0.085,-0.11367 0.0992,-0.11088 0.39219,0.0771 0.1672,0.10729 0.36967,0.26497 0.44993,0.3504 l 0.14593,0.15534 -0.24355,0.37799 c -0.13395,0.2079 -0.25908,0.37824 -0.27808,0.37854 -0.019,3.2e-4 -0.20738,-0.11176 -0.41864,-0.24903 z m -27.966585,-0.0606 c 0,-0.0327 0.12691,-0.16563 0.28201,-0.29528 0.1551,-0.12965 0.282,-0.25519 0.282,-0.27899 0,-0.0238 -0.0846,-0.0728 -0.188,-0.10881 -0.17789,-0.062 -0.188,-0.0839 -0.188,-0.40717 0,-0.28827 0.0352,-0.3939 0.2252,-0.67628 0.12386,-0.18405 0.26373,-0.40544 0.31082,-0.49197 0.0621,-0.11406 0.0863,-0.12799 0.0881,-0.0506 10e-4,0.0587 -0.10765,0.31586 -0.24229,0.57152 l -0.24481,0.46482 0.2442,0.0732 c 0.33337,0.0999 0.37256,0.2801 0.1568,0.72109 -0.13368,0.27323 -0.21307,0.35689 -0.41559,0.43792 -0.29266,0.1171 -0.31048,0.11943 -0.31048,0.0406 z m -35.344514,-0.21586 c -0.120635,-0.0784 -0.339303,-0.21821 -0.485929,-0.31063 l -0.266592,-0.16804 0.220379,-0.43762 c 0.121209,-0.24069 0.24958,-0.43761 0.28527,-0.43761 0.03569,0 0.225688,0.10575 0.422218,0.235 0.196531,0.12925 0.391656,0.25704 0.433611,0.28397 0.05164,0.0332 0.129988,-0.058 0.242542,-0.282 0.09144,-0.18204 0.174552,-0.34031 0.184687,-0.35172 0.03021,-0.034 0.289704,0.1192 0.643084,0.37969 0.370374,0.273 0.376898,0.3235 0.09773,0.7565 -0.202623,0.31427 -0.293382,0.33898 -0.572197,0.15581 -0.128399,-0.0844 -0.307701,-0.20153 -0.398451,-0.26038 l -0.164999,-0.10699 -0.195875,0.34707 c -0.107732,0.19089 -0.202684,0.34537 -0.211007,0.3433 -0.0083,-0.002 -0.113832,-0.0679 -0.234467,-0.14635 z m 14.4601,-0.25839 c -0.232409,-0.15591 -0.422561,-0.30924 -0.422561,-0.34074 0,-0.19046 0.353257,-0.81615 0.461271,-0.81701 0.02966,-2.5e-4 0.235467,0.12647 0.457342,0.28157 0.221874,0.15511 0.414402,0.28201 0.427831,0.28201 0.01343,0 0.101165,-0.141 0.194959,-0.31334 0.0938,-0.17234 0.198838,-0.31334 0.233431,-0.31334 0.09239,0 0.632071,0.35645 0.769345,0.50813 0.116499,0.12873 0.115377,0.13602 -0.07431,0.48496 -0.105927,0.19485 -0.233838,0.36226 -0.284254,0.37203 -0.05041,0.01 -0.27266,-0.0992 -0.493889,-0.24221 -0.221229,-0.14299 -0.410855,-0.23558 -0.421396,-0.20577 -0.0538,0.1522 -0.30709,0.54846 -0.362093,0.56649 -0.03472,0.0114 -0.253271,-0.10687 -0.485674,-0.26278 z m -10.668711,-0.8259 c -0.24127,-0.18991 -0.44797,-0.37026 -0.459333,-0.40077 -0.02405,-0.0646 0.343453,-0.72527 0.43485,-0.78176 0.06734,-0.0416 0.660333,0.34454 0.867142,0.56468 l 0.128431,0.1367 -0.223372,0.37211 c -0.122854,0.20465 -0.242643,0.39061 -0.266206,0.41322 -0.02356,0.0226 -0.240242,-0.11426 -0.481512,-0.30418 z m 36.002525,0.17327 c 0,-0.0395 0.0569,-0.18346 0.12651,-0.31985 0.15508,-0.30399 0.39589,-0.43146 2.5614,-1.35585 2.85328,-1.21798 6.865375,-2.77099 6.947225,-2.68915 0.017,0.017 -0.0414,0.15427 -0.12973,0.30503 -0.15682,0.26759 -0.18498,0.28353 -1.18263,0.66937 -2.477585,0.95821 -4.846135,1.92566 -6.442745,2.63161 -0.94785,0.41909 -1.75861,0.77745 -1.80169,0.79635 -0.0431,0.0189 -0.0783,0.002 -0.0783,-0.0375 z m -8.236129,-0.21083 c 0.153724,-0.49865 0.25908,-0.5715 1.923538,-1.32996 1.159363,-0.52831 5.318791,-2.26944 5.920921,-2.4785 0.3583,-0.1244 0.39252,-0.0925 0.21934,0.20432 -0.1351,0.23156 -0.23338,0.28229 -1.90155,0.98166 -2.35477,0.98721 -4.116553,1.75884 -5.17514,2.26662 -0.895927,0.42975 -1.024139,0.47597 -0.987109,0.35586 z m -14.042195,-0.0523 c 0.13137,-0.4383 0.221843,-0.50978 1.378887,-1.08943 0.620297,-0.31076 1.861027,-0.88003 2.757173,-1.26505 2.034272,-0.87401 2.111278,-0.90496 2.151604,-0.86464 0.01815,0.0182 -0.05026,0.15145 -0.152006,0.29622 -0.157152,0.22361 -0.288566,0.30927 -0.872966,0.56907 -1.475521,0.65596 -2.930794,1.33418 -4.040173,1.8829 -0.637367,0.31525 -1.183183,0.58357 -1.212931,0.59626 -0.02974,0.0127 -0.03405,-0.0437 -0.0096,-0.12533 z m 42.582629,-0.0883 c 0,-0.12163 0.2787,-0.5416 0.43171,-0.65056 0.29521,-0.2102 4.01496,-1.87046 4.41651,-1.97125 0.16883,-0.0424 0.16952,-0.0412 0.0797,0.13143 -0.15935,0.30633 -0.3575,0.4266 -1.73187,1.05118 -0.74104,0.33677 -1.75347,0.80597 -2.24983,1.04267 -0.94289,0.44962 -0.94622,0.45102 -0.94622,0.39653 z m -3.94668,-0.16927 c 7.6e-4,-0.0434 0.0564,-0.20004 0.12354,-0.34808 0.11456,-0.25241 0.16813,-0.29089 0.86031,-0.61781 1.10058,-0.51982 4.6709,-2.08973 4.7525,-2.08973 0.0576,0 -0.16773,0.47182 -0.27273,0.57114 -0.0588,0.0556 -1.03753,0.51761 -2.17495,1.02665 -1.13741,0.50904 -2.34298,1.06305 -2.67903,1.23113 -0.36798,0.18405 -0.61047,0.27422 -0.60964,0.2267 z m -58.644288,-0.65858 c 0.171927,-0.40074 0.318308,-0.52552 1.041829,-0.88812 0.938682,-0.47043 3.463741,-1.58501 3.502651,-1.5461 0.01638,0.0164 -0.03671,0.14944 -0.117964,0.2957 -0.136513,0.24572 -0.212035,0.29526 -0.993753,0.65185 -0.465307,0.21226 -1.435557,0.67237 -2.15611,1.02247 -0.720554,0.3501 -1.319208,0.63654 -1.330343,0.63654 -0.01113,0 0.01303,-0.0775 0.05369,-0.17234 z m 25.742423,-0.23319 c 0,-0.0162 0.359555,-0.26762 0.799012,-0.55863 0.439456,-0.29101 0.938885,-0.65393 1.109836,-0.80649 l 0.310825,-0.27738 -0.263824,-0.25097 c -0.182262,-0.17338 -0.263824,-0.30302 -0.263824,-0.41935 0,-0.4505 0.476443,-1.00194 0.83539,-0.96688 0.264865,0.0259 0.337553,0.23647 0.25465,0.73777 -0.06059,0.36633 -0.05794,0.37859 0.120591,0.55711 0.170775,0.17078 0.177813,0.19688 0.109148,0.40493 l -0.0734,0.22239 -0.217563,-0.12837 -0.217557,-0.12836 -0.37422,0.40839 c -0.467005,0.50965 -0.927342,0.81834 -1.570305,1.05299 -0.523513,0.19106 -0.558763,0.2007 -0.558763,0.15285 z m 2.506703,-2.40198 c 0,-0.20233 -0.100525,-0.32587 -0.265171,-0.32587 -0.204203,0 -0.210657,0.1952 -0.01171,0.35438 0.23605,0.18888 0.276884,0.18467 0.276884,-0.0285 z m 16.259437,1.47582 c -0.0234,-0.0776 -0.12665,-0.34545 -0.22941,-0.59534 -0.15032,-0.36557 -0.21323,-0.45439 -0.32198,-0.45457 -0.16353,-3.2e-4 -0.53353,-0.21683 -0.58076,-0.3399 -0.0364,-0.095 0.0576,-0.31236 0.21141,-0.48878 0.0894,-0.10254 0.10411,-0.10254 0.27935,0 0.25677,0.15023 0.53313,0.54443 0.65684,0.9369 0.0573,0.18188 0.12341,0.33068 0.14683,0.33068 0.0234,0 0.0604,-0.15159 0.0822,-0.33687 0.0952,-0.80966 0.42344,-1.46167 0.70842,-1.40708 0.0634,0.0121 0.17007,0.12411 0.23706,0.24882 0.117,0.2178 0.11745,0.23339 0.0114,0.39531 -0.10724,0.16368 -0.11509,0.16553 -0.27035,0.0638 -0.15093,-0.0989 -0.16651,-0.0982 -0.27806,0.0134 -0.0761,0.0761 -0.16114,0.34029 -0.23899,0.74273 -0.1852,0.95749 -0.31162,1.22959 -0.4139,0.89089 z m -35.310383,-0.002 c 0.01723,-0.0181 0.245933,-0.17608 0.508216,-0.35111 0.64923,-0.43323 0.677242,-0.47265 0.471448,-0.66337 -0.19395,-0.17975 -0.212456,-0.41496 -0.07031,-0.89362 0.121494,-0.40912 0.392406,-0.70662 0.643471,-0.70662 0.102587,0 0.220778,0.0413 0.262652,0.0917 0.08816,0.10622 0.117088,0.77596 0.04768,1.1039 -0.06333,0.29929 -0.478611,0.70667 -1.093148,1.07237 -0.417147,0.24824 -0.870823,0.45251 -0.770016,0.34672 z m 1.592898,-1.39941 c 0.196287,-0.0753 0.06236,-0.58864 -0.15358,-0.58864 -0.09444,0 -0.311301,0.268 -0.311301,0.38471 0,0.17797 0.248483,0.28697 0.464881,0.20393 z m 10.348116,1.02505 c -0.219198,-0.62211 -0.394943,-0.91659 -0.526501,-0.88219 -0.175645,0.0459 -0.502663,-0.14637 -0.546606,-0.32143 -0.04908,-0.19555 0.146862,-0.5354 0.308682,-0.5354 0.212111,0 0.638138,0.49828 0.794725,0.92952 0.159364,0.43889 0.208345,0.42028 0.274873,-0.10447 0.05739,-0.45271 0.268461,-1.01047 0.454496,-1.20106 l 0.152934,-0.15667 0.184625,0.20466 c 0.313996,0.34808 0.219612,0.62015 -0.186943,0.53884 -0.154827,-0.031 -0.195906,-0.009 -0.273551,0.14271 -0.05025,0.0985 -0.137693,0.45366 -0.194313,0.78918 -0.109982,0.6517 -0.191199,0.92532 -0.27466,0.92532 -0.02851,0 -0.104003,-0.14805 -0.167761,-0.32901 z m -15.513066,-0.0737 c 0,-0.0147 0.155102,-0.1134 0.344672,-0.21933 0.189569,-0.10593 0.503184,-0.28123 0.69692,-0.38954 0.301418,-0.16852 0.336224,-0.20591 0.241207,-0.25908 -0.06108,-0.0342 -0.388766,-0.0654 -0.728202,-0.0694 -0.41494,-0.005 -0.617174,-0.0306 -0.617211,-0.0785 -2.9e-5,-0.0392 0.0916,-0.20754 0.203616,-0.37411 0.249718,-0.37132 0.397792,-0.41136 1.230046,-0.33263 0.792807,0.075 0.851464,0.13148 0.611911,0.58902 -0.09796,0.18711 -0.30996,0.46352 -0.471103,0.61425 -0.240331,0.2248 -0.383595,0.29851 -0.797025,0.41007 -0.484731,0.13079 -0.714831,0.16596 -0.714831,0.10926 z m 25.255037,-0.86702 c 0,-0.0459 0.114575,-0.19496 0.254618,-0.33121 0.140037,-0.13624 0.311847,-0.33986 0.38179,-0.45248 l 0.127178,-0.20477 0.124094,0.15777 c 0.184136,0.23409 0.326674,0.19634 0.5844,-0.15475 0.305511,-0.41619 0.506154,-0.56484 0.762414,-0.56484 0.261813,0 0.371845,0.19063 0.307629,0.53294 -0.07599,0.40506 -0.365966,0.64141 -0.99993,0.815 -0.577131,0.15803 -0.605419,0.15638 -0.833373,-0.0486 -0.136966,-0.12315 -0.137423,-0.1231 -0.282004,0.0311 -0.201301,0.21474 -0.426816,0.33087 -0.426816,0.2198 z m 2.043533,-0.76575 c 0.278339,-0.1163 0.27382,-0.3053 -0.008,-0.33303 -0.146585,-0.0144 -0.23563,0.0305 -0.403454,0.20367 l -0.215344,0.22218 h 0.20231 c 0.111266,0 0.30227,-0.0418 0.424453,-0.0928 z m -19.903795,0.74315 c 0,-0.0215 0.169203,-0.21989 0.376006,-0.44097 0.206803,-0.22107 0.376005,-0.42912 0.376005,-0.46232 0,-0.10794 0.115847,-0.0637 0.154833,0.0592 0.08528,0.26869 0.237654,0.21302 0.660842,-0.24147 0.358866,-0.38542 0.439814,-0.44209 0.631458,-0.44209 0.120904,0 0.253665,0.0338 0.295026,0.0752 0.190691,0.19069 -0.01266,0.85832 -0.319862,1.05018 -0.144204,0.0901 -0.98583,0.31598 -1.177122,0.31598 -0.06323,0 -0.170876,-0.06 -0.239221,-0.13339 l -0.124264,-0.13338 -0.247537,0.19605 c -0.232152,0.18387 -0.386164,0.2465 -0.386164,0.15704 z m 1.952127,-0.71457 c 0.343782,-0.0955 0.403341,-0.37443 0.07995,-0.37443 -0.08893,0 -0.252694,0.0919 -0.387975,0.21764 -0.227878,0.21187 -0.229927,0.21767 -0.07741,0.21898 0.08617,7.4e-4 0.259613,-0.0273 0.385437,-0.0622 z m 39.795568,0.53903 c 0.0111,-0.0491 0.19921,-0.27505 0.41793,-0.50217 l 0.39768,-0.41294 0.12388,0.15749 c 0.0681,0.0866 0.16511,0.15749 0.2155,0.15749 0.0504,0 0.28136,-0.1974 0.51325,-0.43867 0.45143,-0.46969 0.64898,-0.5451 0.84901,-0.32407 0.14226,0.1572 0.12997,0.41695 -0.0335,0.70777 -0.1822,0.32419 -0.32628,0.40881 -0.93898,0.55148 -0.45218,0.10529 -0.53708,0.10931 -0.68564,0.0325 -0.0933,-0.0482 -0.18057,-0.12073 -0.19404,-0.16113 -0.0153,-0.0459 -0.12656,5e-4 -0.29706,0.12402 -0.29784,0.21575 -0.39924,0.24557 -0.36805,0.10824 z m 2.13919,-0.7067 c 0.21844,-0.10992 0.20265,-0.29301 -0.0276,-0.3198 -0.11572,-0.0135 -0.22103,0.0384 -0.3598,0.17715 -0.10791,0.10791 -0.19619,0.22152 -0.19619,0.25248 0,0.0721 0.35465,0.005 0.58357,-0.10983 z"
       id="path3036" /></g></svg>
